G04 #@! TF.GenerationSoftware,KiCad,Pcbnew,(5.1.4)-1*
G04 #@! TF.CreationDate,2023-09-26T08:11:37+03:00*
G04 #@! TF.ProjectId,testBoard,74657374-426f-4617-9264-2e6b69636164,rev?*
G04 #@! TF.SameCoordinates,Original*
G04 #@! TF.FileFunction,Copper,L1,Top*
G04 #@! TF.FilePolarity,Positive*
%FSLAX46Y46*%
G04 Gerber Fmt 4.6, Leading zero omitted, Abs format (unit mm)*
G04 Created by KiCad (PCBNEW (5.1.4)-1) date 2023-09-26 08:11:37*
%MOMM*%
%LPD*%
G04 APERTURE LIST*
%ADD10R,0.900000X0.800000*%
%ADD11C,0.100000*%
%ADD12C,0.600000*%
%ADD13R,1.950000X0.600000*%
%ADD14C,2.400000*%
%ADD15C,1.000000*%
%ADD16C,0.500000*%
G04 APERTURE END LIST*
D10*
X120800000Y-107500000D03*
X118800000Y-108450000D03*
X118800000Y-106550000D03*
D11*
G36*
X114114703Y-99790722D02*
G01*
X114129264Y-99792882D01*
X114143543Y-99796459D01*
X114157403Y-99801418D01*
X114170710Y-99807712D01*
X114183336Y-99815280D01*
X114195159Y-99824048D01*
X114206066Y-99833934D01*
X114215952Y-99844841D01*
X114224720Y-99856664D01*
X114232288Y-99869290D01*
X114238582Y-99882597D01*
X114243541Y-99896457D01*
X114247118Y-99910736D01*
X114249278Y-99925297D01*
X114250000Y-99940000D01*
X114250000Y-100240000D01*
X114249278Y-100254703D01*
X114247118Y-100269264D01*
X114243541Y-100283543D01*
X114238582Y-100297403D01*
X114232288Y-100310710D01*
X114224720Y-100323336D01*
X114215952Y-100335159D01*
X114206066Y-100346066D01*
X114195159Y-100355952D01*
X114183336Y-100364720D01*
X114170710Y-100372288D01*
X114157403Y-100378582D01*
X114143543Y-100383541D01*
X114129264Y-100387118D01*
X114114703Y-100389278D01*
X114100000Y-100390000D01*
X112450000Y-100390000D01*
X112435297Y-100389278D01*
X112420736Y-100387118D01*
X112406457Y-100383541D01*
X112392597Y-100378582D01*
X112379290Y-100372288D01*
X112366664Y-100364720D01*
X112354841Y-100355952D01*
X112343934Y-100346066D01*
X112334048Y-100335159D01*
X112325280Y-100323336D01*
X112317712Y-100310710D01*
X112311418Y-100297403D01*
X112306459Y-100283543D01*
X112302882Y-100269264D01*
X112300722Y-100254703D01*
X112300000Y-100240000D01*
X112300000Y-99940000D01*
X112300722Y-99925297D01*
X112302882Y-99910736D01*
X112306459Y-99896457D01*
X112311418Y-99882597D01*
X112317712Y-99869290D01*
X112325280Y-99856664D01*
X112334048Y-99844841D01*
X112343934Y-99833934D01*
X112354841Y-99824048D01*
X112366664Y-99815280D01*
X112379290Y-99807712D01*
X112392597Y-99801418D01*
X112406457Y-99796459D01*
X112420736Y-99792882D01*
X112435297Y-99790722D01*
X112450000Y-99790000D01*
X114100000Y-99790000D01*
X114114703Y-99790722D01*
X114114703Y-99790722D01*
G37*
D12*
X113275000Y-100090000D03*
D11*
G36*
X114114703Y-101060722D02*
G01*
X114129264Y-101062882D01*
X114143543Y-101066459D01*
X114157403Y-101071418D01*
X114170710Y-101077712D01*
X114183336Y-101085280D01*
X114195159Y-101094048D01*
X114206066Y-101103934D01*
X114215952Y-101114841D01*
X114224720Y-101126664D01*
X114232288Y-101139290D01*
X114238582Y-101152597D01*
X114243541Y-101166457D01*
X114247118Y-101180736D01*
X114249278Y-101195297D01*
X114250000Y-101210000D01*
X114250000Y-101510000D01*
X114249278Y-101524703D01*
X114247118Y-101539264D01*
X114243541Y-101553543D01*
X114238582Y-101567403D01*
X114232288Y-101580710D01*
X114224720Y-101593336D01*
X114215952Y-101605159D01*
X114206066Y-101616066D01*
X114195159Y-101625952D01*
X114183336Y-101634720D01*
X114170710Y-101642288D01*
X114157403Y-101648582D01*
X114143543Y-101653541D01*
X114129264Y-101657118D01*
X114114703Y-101659278D01*
X114100000Y-101660000D01*
X112450000Y-101660000D01*
X112435297Y-101659278D01*
X112420736Y-101657118D01*
X112406457Y-101653541D01*
X112392597Y-101648582D01*
X112379290Y-101642288D01*
X112366664Y-101634720D01*
X112354841Y-101625952D01*
X112343934Y-101616066D01*
X112334048Y-101605159D01*
X112325280Y-101593336D01*
X112317712Y-101580710D01*
X112311418Y-101567403D01*
X112306459Y-101553543D01*
X112302882Y-101539264D01*
X112300722Y-101524703D01*
X112300000Y-101510000D01*
X112300000Y-101210000D01*
X112300722Y-101195297D01*
X112302882Y-101180736D01*
X112306459Y-101166457D01*
X112311418Y-101152597D01*
X112317712Y-101139290D01*
X112325280Y-101126664D01*
X112334048Y-101114841D01*
X112343934Y-101103934D01*
X112354841Y-101094048D01*
X112366664Y-101085280D01*
X112379290Y-101077712D01*
X112392597Y-101071418D01*
X112406457Y-101066459D01*
X112420736Y-101062882D01*
X112435297Y-101060722D01*
X112450000Y-101060000D01*
X114100000Y-101060000D01*
X114114703Y-101060722D01*
X114114703Y-101060722D01*
G37*
D12*
X113275000Y-101360000D03*
D11*
G36*
X114114703Y-102330722D02*
G01*
X114129264Y-102332882D01*
X114143543Y-102336459D01*
X114157403Y-102341418D01*
X114170710Y-102347712D01*
X114183336Y-102355280D01*
X114195159Y-102364048D01*
X114206066Y-102373934D01*
X114215952Y-102384841D01*
X114224720Y-102396664D01*
X114232288Y-102409290D01*
X114238582Y-102422597D01*
X114243541Y-102436457D01*
X114247118Y-102450736D01*
X114249278Y-102465297D01*
X114250000Y-102480000D01*
X114250000Y-102780000D01*
X114249278Y-102794703D01*
X114247118Y-102809264D01*
X114243541Y-102823543D01*
X114238582Y-102837403D01*
X114232288Y-102850710D01*
X114224720Y-102863336D01*
X114215952Y-102875159D01*
X114206066Y-102886066D01*
X114195159Y-102895952D01*
X114183336Y-102904720D01*
X114170710Y-102912288D01*
X114157403Y-102918582D01*
X114143543Y-102923541D01*
X114129264Y-102927118D01*
X114114703Y-102929278D01*
X114100000Y-102930000D01*
X112450000Y-102930000D01*
X112435297Y-102929278D01*
X112420736Y-102927118D01*
X112406457Y-102923541D01*
X112392597Y-102918582D01*
X112379290Y-102912288D01*
X112366664Y-102904720D01*
X112354841Y-102895952D01*
X112343934Y-102886066D01*
X112334048Y-102875159D01*
X112325280Y-102863336D01*
X112317712Y-102850710D01*
X112311418Y-102837403D01*
X112306459Y-102823543D01*
X112302882Y-102809264D01*
X112300722Y-102794703D01*
X112300000Y-102780000D01*
X112300000Y-102480000D01*
X112300722Y-102465297D01*
X112302882Y-102450736D01*
X112306459Y-102436457D01*
X112311418Y-102422597D01*
X112317712Y-102409290D01*
X112325280Y-102396664D01*
X112334048Y-102384841D01*
X112343934Y-102373934D01*
X112354841Y-102364048D01*
X112366664Y-102355280D01*
X112379290Y-102347712D01*
X112392597Y-102341418D01*
X112406457Y-102336459D01*
X112420736Y-102332882D01*
X112435297Y-102330722D01*
X112450000Y-102330000D01*
X114100000Y-102330000D01*
X114114703Y-102330722D01*
X114114703Y-102330722D01*
G37*
D12*
X113275000Y-102630000D03*
D11*
G36*
X114114703Y-103600722D02*
G01*
X114129264Y-103602882D01*
X114143543Y-103606459D01*
X114157403Y-103611418D01*
X114170710Y-103617712D01*
X114183336Y-103625280D01*
X114195159Y-103634048D01*
X114206066Y-103643934D01*
X114215952Y-103654841D01*
X114224720Y-103666664D01*
X114232288Y-103679290D01*
X114238582Y-103692597D01*
X114243541Y-103706457D01*
X114247118Y-103720736D01*
X114249278Y-103735297D01*
X114250000Y-103750000D01*
X114250000Y-104050000D01*
X114249278Y-104064703D01*
X114247118Y-104079264D01*
X114243541Y-104093543D01*
X114238582Y-104107403D01*
X114232288Y-104120710D01*
X114224720Y-104133336D01*
X114215952Y-104145159D01*
X114206066Y-104156066D01*
X114195159Y-104165952D01*
X114183336Y-104174720D01*
X114170710Y-104182288D01*
X114157403Y-104188582D01*
X114143543Y-104193541D01*
X114129264Y-104197118D01*
X114114703Y-104199278D01*
X114100000Y-104200000D01*
X112450000Y-104200000D01*
X112435297Y-104199278D01*
X112420736Y-104197118D01*
X112406457Y-104193541D01*
X112392597Y-104188582D01*
X112379290Y-104182288D01*
X112366664Y-104174720D01*
X112354841Y-104165952D01*
X112343934Y-104156066D01*
X112334048Y-104145159D01*
X112325280Y-104133336D01*
X112317712Y-104120710D01*
X112311418Y-104107403D01*
X112306459Y-104093543D01*
X112302882Y-104079264D01*
X112300722Y-104064703D01*
X112300000Y-104050000D01*
X112300000Y-103750000D01*
X112300722Y-103735297D01*
X112302882Y-103720736D01*
X112306459Y-103706457D01*
X112311418Y-103692597D01*
X112317712Y-103679290D01*
X112325280Y-103666664D01*
X112334048Y-103654841D01*
X112343934Y-103643934D01*
X112354841Y-103634048D01*
X112366664Y-103625280D01*
X112379290Y-103617712D01*
X112392597Y-103611418D01*
X112406457Y-103606459D01*
X112420736Y-103602882D01*
X112435297Y-103600722D01*
X112450000Y-103600000D01*
X114100000Y-103600000D01*
X114114703Y-103600722D01*
X114114703Y-103600722D01*
G37*
D12*
X113275000Y-103900000D03*
D11*
G36*
X114114703Y-104870722D02*
G01*
X114129264Y-104872882D01*
X114143543Y-104876459D01*
X114157403Y-104881418D01*
X114170710Y-104887712D01*
X114183336Y-104895280D01*
X114195159Y-104904048D01*
X114206066Y-104913934D01*
X114215952Y-104924841D01*
X114224720Y-104936664D01*
X114232288Y-104949290D01*
X114238582Y-104962597D01*
X114243541Y-104976457D01*
X114247118Y-104990736D01*
X114249278Y-105005297D01*
X114250000Y-105020000D01*
X114250000Y-105320000D01*
X114249278Y-105334703D01*
X114247118Y-105349264D01*
X114243541Y-105363543D01*
X114238582Y-105377403D01*
X114232288Y-105390710D01*
X114224720Y-105403336D01*
X114215952Y-105415159D01*
X114206066Y-105426066D01*
X114195159Y-105435952D01*
X114183336Y-105444720D01*
X114170710Y-105452288D01*
X114157403Y-105458582D01*
X114143543Y-105463541D01*
X114129264Y-105467118D01*
X114114703Y-105469278D01*
X114100000Y-105470000D01*
X112450000Y-105470000D01*
X112435297Y-105469278D01*
X112420736Y-105467118D01*
X112406457Y-105463541D01*
X112392597Y-105458582D01*
X112379290Y-105452288D01*
X112366664Y-105444720D01*
X112354841Y-105435952D01*
X112343934Y-105426066D01*
X112334048Y-105415159D01*
X112325280Y-105403336D01*
X112317712Y-105390710D01*
X112311418Y-105377403D01*
X112306459Y-105363543D01*
X112302882Y-105349264D01*
X112300722Y-105334703D01*
X112300000Y-105320000D01*
X112300000Y-105020000D01*
X112300722Y-105005297D01*
X112302882Y-104990736D01*
X112306459Y-104976457D01*
X112311418Y-104962597D01*
X112317712Y-104949290D01*
X112325280Y-104936664D01*
X112334048Y-104924841D01*
X112343934Y-104913934D01*
X112354841Y-104904048D01*
X112366664Y-104895280D01*
X112379290Y-104887712D01*
X112392597Y-104881418D01*
X112406457Y-104876459D01*
X112420736Y-104872882D01*
X112435297Y-104870722D01*
X112450000Y-104870000D01*
X114100000Y-104870000D01*
X114114703Y-104870722D01*
X114114703Y-104870722D01*
G37*
D12*
X113275000Y-105170000D03*
D13*
X113275000Y-106440000D03*
D11*
G36*
X114114703Y-107410722D02*
G01*
X114129264Y-107412882D01*
X114143543Y-107416459D01*
X114157403Y-107421418D01*
X114170710Y-107427712D01*
X114183336Y-107435280D01*
X114195159Y-107444048D01*
X114206066Y-107453934D01*
X114215952Y-107464841D01*
X114224720Y-107476664D01*
X114232288Y-107489290D01*
X114238582Y-107502597D01*
X114243541Y-107516457D01*
X114247118Y-107530736D01*
X114249278Y-107545297D01*
X114250000Y-107560000D01*
X114250000Y-107860000D01*
X114249278Y-107874703D01*
X114247118Y-107889264D01*
X114243541Y-107903543D01*
X114238582Y-107917403D01*
X114232288Y-107930710D01*
X114224720Y-107943336D01*
X114215952Y-107955159D01*
X114206066Y-107966066D01*
X114195159Y-107975952D01*
X114183336Y-107984720D01*
X114170710Y-107992288D01*
X114157403Y-107998582D01*
X114143543Y-108003541D01*
X114129264Y-108007118D01*
X114114703Y-108009278D01*
X114100000Y-108010000D01*
X112450000Y-108010000D01*
X112435297Y-108009278D01*
X112420736Y-108007118D01*
X112406457Y-108003541D01*
X112392597Y-107998582D01*
X112379290Y-107992288D01*
X112366664Y-107984720D01*
X112354841Y-107975952D01*
X112343934Y-107966066D01*
X112334048Y-107955159D01*
X112325280Y-107943336D01*
X112317712Y-107930710D01*
X112311418Y-107917403D01*
X112306459Y-107903543D01*
X112302882Y-107889264D01*
X112300722Y-107874703D01*
X112300000Y-107860000D01*
X112300000Y-107560000D01*
X112300722Y-107545297D01*
X112302882Y-107530736D01*
X112306459Y-107516457D01*
X112311418Y-107502597D01*
X112317712Y-107489290D01*
X112325280Y-107476664D01*
X112334048Y-107464841D01*
X112343934Y-107453934D01*
X112354841Y-107444048D01*
X112366664Y-107435280D01*
X112379290Y-107427712D01*
X112392597Y-107421418D01*
X112406457Y-107416459D01*
X112420736Y-107412882D01*
X112435297Y-107410722D01*
X112450000Y-107410000D01*
X114100000Y-107410000D01*
X114114703Y-107410722D01*
X114114703Y-107410722D01*
G37*
D12*
X113275000Y-107710000D03*
D11*
G36*
X109164703Y-107410722D02*
G01*
X109179264Y-107412882D01*
X109193543Y-107416459D01*
X109207403Y-107421418D01*
X109220710Y-107427712D01*
X109233336Y-107435280D01*
X109245159Y-107444048D01*
X109256066Y-107453934D01*
X109265952Y-107464841D01*
X109274720Y-107476664D01*
X109282288Y-107489290D01*
X109288582Y-107502597D01*
X109293541Y-107516457D01*
X109297118Y-107530736D01*
X109299278Y-107545297D01*
X109300000Y-107560000D01*
X109300000Y-107860000D01*
X109299278Y-107874703D01*
X109297118Y-107889264D01*
X109293541Y-107903543D01*
X109288582Y-107917403D01*
X109282288Y-107930710D01*
X109274720Y-107943336D01*
X109265952Y-107955159D01*
X109256066Y-107966066D01*
X109245159Y-107975952D01*
X109233336Y-107984720D01*
X109220710Y-107992288D01*
X109207403Y-107998582D01*
X109193543Y-108003541D01*
X109179264Y-108007118D01*
X109164703Y-108009278D01*
X109150000Y-108010000D01*
X107500000Y-108010000D01*
X107485297Y-108009278D01*
X107470736Y-108007118D01*
X107456457Y-108003541D01*
X107442597Y-107998582D01*
X107429290Y-107992288D01*
X107416664Y-107984720D01*
X107404841Y-107975952D01*
X107393934Y-107966066D01*
X107384048Y-107955159D01*
X107375280Y-107943336D01*
X107367712Y-107930710D01*
X107361418Y-107917403D01*
X107356459Y-107903543D01*
X107352882Y-107889264D01*
X107350722Y-107874703D01*
X107350000Y-107860000D01*
X107350000Y-107560000D01*
X107350722Y-107545297D01*
X107352882Y-107530736D01*
X107356459Y-107516457D01*
X107361418Y-107502597D01*
X107367712Y-107489290D01*
X107375280Y-107476664D01*
X107384048Y-107464841D01*
X107393934Y-107453934D01*
X107404841Y-107444048D01*
X107416664Y-107435280D01*
X107429290Y-107427712D01*
X107442597Y-107421418D01*
X107456457Y-107416459D01*
X107470736Y-107412882D01*
X107485297Y-107410722D01*
X107500000Y-107410000D01*
X109150000Y-107410000D01*
X109164703Y-107410722D01*
X109164703Y-107410722D01*
G37*
D12*
X108325000Y-107710000D03*
D11*
G36*
X109164703Y-106140722D02*
G01*
X109179264Y-106142882D01*
X109193543Y-106146459D01*
X109207403Y-106151418D01*
X109220710Y-106157712D01*
X109233336Y-106165280D01*
X109245159Y-106174048D01*
X109256066Y-106183934D01*
X109265952Y-106194841D01*
X109274720Y-106206664D01*
X109282288Y-106219290D01*
X109288582Y-106232597D01*
X109293541Y-106246457D01*
X109297118Y-106260736D01*
X109299278Y-106275297D01*
X109300000Y-106290000D01*
X109300000Y-106590000D01*
X109299278Y-106604703D01*
X109297118Y-106619264D01*
X109293541Y-106633543D01*
X109288582Y-106647403D01*
X109282288Y-106660710D01*
X109274720Y-106673336D01*
X109265952Y-106685159D01*
X109256066Y-106696066D01*
X109245159Y-106705952D01*
X109233336Y-106714720D01*
X109220710Y-106722288D01*
X109207403Y-106728582D01*
X109193543Y-106733541D01*
X109179264Y-106737118D01*
X109164703Y-106739278D01*
X109150000Y-106740000D01*
X107500000Y-106740000D01*
X107485297Y-106739278D01*
X107470736Y-106737118D01*
X107456457Y-106733541D01*
X107442597Y-106728582D01*
X107429290Y-106722288D01*
X107416664Y-106714720D01*
X107404841Y-106705952D01*
X107393934Y-106696066D01*
X107384048Y-106685159D01*
X107375280Y-106673336D01*
X107367712Y-106660710D01*
X107361418Y-106647403D01*
X107356459Y-106633543D01*
X107352882Y-106619264D01*
X107350722Y-106604703D01*
X107350000Y-106590000D01*
X107350000Y-106290000D01*
X107350722Y-106275297D01*
X107352882Y-106260736D01*
X107356459Y-106246457D01*
X107361418Y-106232597D01*
X107367712Y-106219290D01*
X107375280Y-106206664D01*
X107384048Y-106194841D01*
X107393934Y-106183934D01*
X107404841Y-106174048D01*
X107416664Y-106165280D01*
X107429290Y-106157712D01*
X107442597Y-106151418D01*
X107456457Y-106146459D01*
X107470736Y-106142882D01*
X107485297Y-106140722D01*
X107500000Y-106140000D01*
X109150000Y-106140000D01*
X109164703Y-106140722D01*
X109164703Y-106140722D01*
G37*
D12*
X108325000Y-106440000D03*
D11*
G36*
X109164703Y-104870722D02*
G01*
X109179264Y-104872882D01*
X109193543Y-104876459D01*
X109207403Y-104881418D01*
X109220710Y-104887712D01*
X109233336Y-104895280D01*
X109245159Y-104904048D01*
X109256066Y-104913934D01*
X109265952Y-104924841D01*
X109274720Y-104936664D01*
X109282288Y-104949290D01*
X109288582Y-104962597D01*
X109293541Y-104976457D01*
X109297118Y-104990736D01*
X109299278Y-105005297D01*
X109300000Y-105020000D01*
X109300000Y-105320000D01*
X109299278Y-105334703D01*
X109297118Y-105349264D01*
X109293541Y-105363543D01*
X109288582Y-105377403D01*
X109282288Y-105390710D01*
X109274720Y-105403336D01*
X109265952Y-105415159D01*
X109256066Y-105426066D01*
X109245159Y-105435952D01*
X109233336Y-105444720D01*
X109220710Y-105452288D01*
X109207403Y-105458582D01*
X109193543Y-105463541D01*
X109179264Y-105467118D01*
X109164703Y-105469278D01*
X109150000Y-105470000D01*
X107500000Y-105470000D01*
X107485297Y-105469278D01*
X107470736Y-105467118D01*
X107456457Y-105463541D01*
X107442597Y-105458582D01*
X107429290Y-105452288D01*
X107416664Y-105444720D01*
X107404841Y-105435952D01*
X107393934Y-105426066D01*
X107384048Y-105415159D01*
X107375280Y-105403336D01*
X107367712Y-105390710D01*
X107361418Y-105377403D01*
X107356459Y-105363543D01*
X107352882Y-105349264D01*
X107350722Y-105334703D01*
X107350000Y-105320000D01*
X107350000Y-105020000D01*
X107350722Y-105005297D01*
X107352882Y-104990736D01*
X107356459Y-104976457D01*
X107361418Y-104962597D01*
X107367712Y-104949290D01*
X107375280Y-104936664D01*
X107384048Y-104924841D01*
X107393934Y-104913934D01*
X107404841Y-104904048D01*
X107416664Y-104895280D01*
X107429290Y-104887712D01*
X107442597Y-104881418D01*
X107456457Y-104876459D01*
X107470736Y-104872882D01*
X107485297Y-104870722D01*
X107500000Y-104870000D01*
X109150000Y-104870000D01*
X109164703Y-104870722D01*
X109164703Y-104870722D01*
G37*
D12*
X108325000Y-105170000D03*
D11*
G36*
X109164703Y-103600722D02*
G01*
X109179264Y-103602882D01*
X109193543Y-103606459D01*
X109207403Y-103611418D01*
X109220710Y-103617712D01*
X109233336Y-103625280D01*
X109245159Y-103634048D01*
X109256066Y-103643934D01*
X109265952Y-103654841D01*
X109274720Y-103666664D01*
X109282288Y-103679290D01*
X109288582Y-103692597D01*
X109293541Y-103706457D01*
X109297118Y-103720736D01*
X109299278Y-103735297D01*
X109300000Y-103750000D01*
X109300000Y-104050000D01*
X109299278Y-104064703D01*
X109297118Y-104079264D01*
X109293541Y-104093543D01*
X109288582Y-104107403D01*
X109282288Y-104120710D01*
X109274720Y-104133336D01*
X109265952Y-104145159D01*
X109256066Y-104156066D01*
X109245159Y-104165952D01*
X109233336Y-104174720D01*
X109220710Y-104182288D01*
X109207403Y-104188582D01*
X109193543Y-104193541D01*
X109179264Y-104197118D01*
X109164703Y-104199278D01*
X109150000Y-104200000D01*
X107500000Y-104200000D01*
X107485297Y-104199278D01*
X107470736Y-104197118D01*
X107456457Y-104193541D01*
X107442597Y-104188582D01*
X107429290Y-104182288D01*
X107416664Y-104174720D01*
X107404841Y-104165952D01*
X107393934Y-104156066D01*
X107384048Y-104145159D01*
X107375280Y-104133336D01*
X107367712Y-104120710D01*
X107361418Y-104107403D01*
X107356459Y-104093543D01*
X107352882Y-104079264D01*
X107350722Y-104064703D01*
X107350000Y-104050000D01*
X107350000Y-103750000D01*
X107350722Y-103735297D01*
X107352882Y-103720736D01*
X107356459Y-103706457D01*
X107361418Y-103692597D01*
X107367712Y-103679290D01*
X107375280Y-103666664D01*
X107384048Y-103654841D01*
X107393934Y-103643934D01*
X107404841Y-103634048D01*
X107416664Y-103625280D01*
X107429290Y-103617712D01*
X107442597Y-103611418D01*
X107456457Y-103606459D01*
X107470736Y-103602882D01*
X107485297Y-103600722D01*
X107500000Y-103600000D01*
X109150000Y-103600000D01*
X109164703Y-103600722D01*
X109164703Y-103600722D01*
G37*
D12*
X108325000Y-103900000D03*
D11*
G36*
X109164703Y-102330722D02*
G01*
X109179264Y-102332882D01*
X109193543Y-102336459D01*
X109207403Y-102341418D01*
X109220710Y-102347712D01*
X109233336Y-102355280D01*
X109245159Y-102364048D01*
X109256066Y-102373934D01*
X109265952Y-102384841D01*
X109274720Y-102396664D01*
X109282288Y-102409290D01*
X109288582Y-102422597D01*
X109293541Y-102436457D01*
X109297118Y-102450736D01*
X109299278Y-102465297D01*
X109300000Y-102480000D01*
X109300000Y-102780000D01*
X109299278Y-102794703D01*
X109297118Y-102809264D01*
X109293541Y-102823543D01*
X109288582Y-102837403D01*
X109282288Y-102850710D01*
X109274720Y-102863336D01*
X109265952Y-102875159D01*
X109256066Y-102886066D01*
X109245159Y-102895952D01*
X109233336Y-102904720D01*
X109220710Y-102912288D01*
X109207403Y-102918582D01*
X109193543Y-102923541D01*
X109179264Y-102927118D01*
X109164703Y-102929278D01*
X109150000Y-102930000D01*
X107500000Y-102930000D01*
X107485297Y-102929278D01*
X107470736Y-102927118D01*
X107456457Y-102923541D01*
X107442597Y-102918582D01*
X107429290Y-102912288D01*
X107416664Y-102904720D01*
X107404841Y-102895952D01*
X107393934Y-102886066D01*
X107384048Y-102875159D01*
X107375280Y-102863336D01*
X107367712Y-102850710D01*
X107361418Y-102837403D01*
X107356459Y-102823543D01*
X107352882Y-102809264D01*
X107350722Y-102794703D01*
X107350000Y-102780000D01*
X107350000Y-102480000D01*
X107350722Y-102465297D01*
X107352882Y-102450736D01*
X107356459Y-102436457D01*
X107361418Y-102422597D01*
X107367712Y-102409290D01*
X107375280Y-102396664D01*
X107384048Y-102384841D01*
X107393934Y-102373934D01*
X107404841Y-102364048D01*
X107416664Y-102355280D01*
X107429290Y-102347712D01*
X107442597Y-102341418D01*
X107456457Y-102336459D01*
X107470736Y-102332882D01*
X107485297Y-102330722D01*
X107500000Y-102330000D01*
X109150000Y-102330000D01*
X109164703Y-102330722D01*
X109164703Y-102330722D01*
G37*
D12*
X108325000Y-102630000D03*
D11*
G36*
X109164703Y-101060722D02*
G01*
X109179264Y-101062882D01*
X109193543Y-101066459D01*
X109207403Y-101071418D01*
X109220710Y-101077712D01*
X109233336Y-101085280D01*
X109245159Y-101094048D01*
X109256066Y-101103934D01*
X109265952Y-101114841D01*
X109274720Y-101126664D01*
X109282288Y-101139290D01*
X109288582Y-101152597D01*
X109293541Y-101166457D01*
X109297118Y-101180736D01*
X109299278Y-101195297D01*
X109300000Y-101210000D01*
X109300000Y-101510000D01*
X109299278Y-101524703D01*
X109297118Y-101539264D01*
X109293541Y-101553543D01*
X109288582Y-101567403D01*
X109282288Y-101580710D01*
X109274720Y-101593336D01*
X109265952Y-101605159D01*
X109256066Y-101616066D01*
X109245159Y-101625952D01*
X109233336Y-101634720D01*
X109220710Y-101642288D01*
X109207403Y-101648582D01*
X109193543Y-101653541D01*
X109179264Y-101657118D01*
X109164703Y-101659278D01*
X109150000Y-101660000D01*
X107500000Y-101660000D01*
X107485297Y-101659278D01*
X107470736Y-101657118D01*
X107456457Y-101653541D01*
X107442597Y-101648582D01*
X107429290Y-101642288D01*
X107416664Y-101634720D01*
X107404841Y-101625952D01*
X107393934Y-101616066D01*
X107384048Y-101605159D01*
X107375280Y-101593336D01*
X107367712Y-101580710D01*
X107361418Y-101567403D01*
X107356459Y-101553543D01*
X107352882Y-101539264D01*
X107350722Y-101524703D01*
X107350000Y-101510000D01*
X107350000Y-101210000D01*
X107350722Y-101195297D01*
X107352882Y-101180736D01*
X107356459Y-101166457D01*
X107361418Y-101152597D01*
X107367712Y-101139290D01*
X107375280Y-101126664D01*
X107384048Y-101114841D01*
X107393934Y-101103934D01*
X107404841Y-101094048D01*
X107416664Y-101085280D01*
X107429290Y-101077712D01*
X107442597Y-101071418D01*
X107456457Y-101066459D01*
X107470736Y-101062882D01*
X107485297Y-101060722D01*
X107500000Y-101060000D01*
X109150000Y-101060000D01*
X109164703Y-101060722D01*
X109164703Y-101060722D01*
G37*
D12*
X108325000Y-101360000D03*
D11*
G36*
X109164703Y-99790722D02*
G01*
X109179264Y-99792882D01*
X109193543Y-99796459D01*
X109207403Y-99801418D01*
X109220710Y-99807712D01*
X109233336Y-99815280D01*
X109245159Y-99824048D01*
X109256066Y-99833934D01*
X109265952Y-99844841D01*
X109274720Y-99856664D01*
X109282288Y-99869290D01*
X109288582Y-99882597D01*
X109293541Y-99896457D01*
X109297118Y-99910736D01*
X109299278Y-99925297D01*
X109300000Y-99940000D01*
X109300000Y-100240000D01*
X109299278Y-100254703D01*
X109297118Y-100269264D01*
X109293541Y-100283543D01*
X109288582Y-100297403D01*
X109282288Y-100310710D01*
X109274720Y-100323336D01*
X109265952Y-100335159D01*
X109256066Y-100346066D01*
X109245159Y-100355952D01*
X109233336Y-100364720D01*
X109220710Y-100372288D01*
X109207403Y-100378582D01*
X109193543Y-100383541D01*
X109179264Y-100387118D01*
X109164703Y-100389278D01*
X109150000Y-100390000D01*
X107500000Y-100390000D01*
X107485297Y-100389278D01*
X107470736Y-100387118D01*
X107456457Y-100383541D01*
X107442597Y-100378582D01*
X107429290Y-100372288D01*
X107416664Y-100364720D01*
X107404841Y-100355952D01*
X107393934Y-100346066D01*
X107384048Y-100335159D01*
X107375280Y-100323336D01*
X107367712Y-100310710D01*
X107361418Y-100297403D01*
X107356459Y-100283543D01*
X107352882Y-100269264D01*
X107350722Y-100254703D01*
X107350000Y-100240000D01*
X107350000Y-99940000D01*
X107350722Y-99925297D01*
X107352882Y-99910736D01*
X107356459Y-99896457D01*
X107361418Y-99882597D01*
X107367712Y-99869290D01*
X107375280Y-99856664D01*
X107384048Y-99844841D01*
X107393934Y-99833934D01*
X107404841Y-99824048D01*
X107416664Y-99815280D01*
X107429290Y-99807712D01*
X107442597Y-99801418D01*
X107456457Y-99796459D01*
X107470736Y-99792882D01*
X107485297Y-99790722D01*
X107500000Y-99790000D01*
X109150000Y-99790000D01*
X109164703Y-99790722D01*
X109164703Y-99790722D01*
G37*
D12*
X108325000Y-100090000D03*
D14*
X92710000Y-106680000D03*
X114300000Y-88900000D03*
X87630000Y-87630000D03*
D15*
X113030000Y-87630000D02*
X114300000Y-88900000D01*
X92710000Y-95250000D02*
X100330000Y-87630000D01*
X87630000Y-87630000D02*
X100330000Y-87630000D01*
X100330000Y-87630000D02*
X113030000Y-87630000D01*
D16*
X94310000Y-100090000D02*
X92710000Y-98490000D01*
X108325000Y-100090000D02*
X94310000Y-100090000D01*
D15*
X92710000Y-106680000D02*
X92710000Y-98490000D01*
X92710000Y-98490000D02*
X92710000Y-95250000D01*
D16*
X113275000Y-102630000D02*
X117170000Y-102630000D01*
X117170000Y-102630000D02*
X117700000Y-102100000D01*
X117700000Y-102100000D02*
X117700000Y-98100000D01*
X117700000Y-98100000D02*
X114100000Y-94500000D01*
X114300000Y-94300000D02*
X114300000Y-88900000D01*
X114100000Y-94500000D02*
X114300000Y-94300000D01*
X108325000Y-106440000D02*
X105440000Y-106440000D01*
X105440000Y-106440000D02*
X104500000Y-105500000D01*
X104500000Y-105500000D02*
X104500000Y-103600000D01*
X105470000Y-102630000D02*
X108325000Y-102630000D01*
X104500000Y-103600000D02*
X105470000Y-102630000D01*
X112904290Y-99719290D02*
X111380710Y-99719290D01*
X113275000Y-100090000D02*
X112904290Y-99719290D01*
X111380710Y-99719290D02*
X110900000Y-100200000D01*
X110900000Y-100200000D02*
X110900000Y-104800000D01*
X111270000Y-105170000D02*
X113275000Y-105170000D01*
X110900000Y-104800000D02*
X111270000Y-105170000D01*
X118800000Y-105650000D02*
X118800000Y-106550000D01*
X117050000Y-103900000D02*
X118800000Y-105650000D01*
X113275000Y-103900000D02*
X117050000Y-103900000D01*
X108695710Y-105540710D02*
X109940710Y-105540710D01*
X108325000Y-105170000D02*
X108695710Y-105540710D01*
X109940710Y-105540710D02*
X110800000Y-106400000D01*
X110800000Y-106400000D02*
X110800000Y-108700000D01*
X110800000Y-108700000D02*
X111500000Y-109400000D01*
X112450000Y-108450000D02*
X118800000Y-108450000D01*
X111500000Y-109400000D02*
X112450000Y-108450000D01*
M02*
