G04 #@! TF.GenerationSoftware,KiCad,Pcbnew,5.1.5+dfsg1-2build2*
G04 #@! TF.CreationDate,2024-01-31T06:24:51+03:00*
G04 #@! TF.ProjectId,rectPads,72656374-5061-4647-932e-6b696361645f,rev?*
G04 #@! TF.SameCoordinates,Original*
G04 #@! TF.FileFunction,Copper,L1,Top*
G04 #@! TF.FilePolarity,Positive*
%FSLAX46Y46*%
G04 Gerber Fmt 4.6, Leading zero omitted, Abs format (unit mm)*
G04 Created by KiCad (PCBNEW 5.1.5+dfsg1-2build2) date 2024-01-31 06:24:51*
%MOMM*%
%LPD*%
G04 APERTURE LIST*
%ADD10R,2.050000X0.600000*%
%ADD11R,1.600000X0.550000*%
%ADD12C,0.250000*%
G04 APERTURE END LIST*
D10*
X118150000Y-50545000D03*
X118150000Y-51815000D03*
X118150000Y-53085000D03*
X118150000Y-54355000D03*
X118150000Y-55625000D03*
X118150000Y-56895000D03*
X118150000Y-58165000D03*
X118150000Y-59435000D03*
X118150000Y-60705000D03*
X118150000Y-61975000D03*
X118150000Y-63245000D03*
X118150000Y-64515000D03*
X118150000Y-65785000D03*
X118150000Y-67055000D03*
X127450000Y-67055000D03*
X127450000Y-65785000D03*
X127450000Y-64515000D03*
X127450000Y-63245000D03*
X127450000Y-61975000D03*
X127450000Y-60705000D03*
X127450000Y-59435000D03*
X127450000Y-58165000D03*
X127450000Y-56895000D03*
X127450000Y-55625000D03*
X127450000Y-54355000D03*
X127450000Y-53085000D03*
X127450000Y-51815000D03*
X127450000Y-50545000D03*
X138050000Y-50845000D03*
X138050000Y-52115000D03*
X138050000Y-53385000D03*
X138050000Y-54655000D03*
X138050000Y-55925000D03*
X138050000Y-57195000D03*
X138050000Y-58465000D03*
X138050000Y-59735000D03*
X138050000Y-61005000D03*
X138050000Y-62275000D03*
X138050000Y-63545000D03*
X138050000Y-64815000D03*
X138050000Y-66085000D03*
X138050000Y-67355000D03*
X147350000Y-67355000D03*
X147350000Y-66085000D03*
X147350000Y-64815000D03*
X147350000Y-63545000D03*
X147350000Y-62275000D03*
X147350000Y-61005000D03*
X147350000Y-59735000D03*
X147350000Y-58465000D03*
X147350000Y-57195000D03*
X147350000Y-55925000D03*
X147350000Y-54655000D03*
X147350000Y-53385000D03*
X147350000Y-52115000D03*
X147350000Y-50845000D03*
X147450000Y-72045000D03*
X147450000Y-73315000D03*
X147450000Y-74585000D03*
X147450000Y-75855000D03*
X147450000Y-77125000D03*
X147450000Y-78395000D03*
X147450000Y-79665000D03*
X147450000Y-80935000D03*
X147450000Y-82205000D03*
X147450000Y-83475000D03*
X147450000Y-84745000D03*
X147450000Y-86015000D03*
X147450000Y-87285000D03*
X147450000Y-88555000D03*
X138150000Y-88555000D03*
X138150000Y-87285000D03*
X138150000Y-86015000D03*
X138150000Y-84745000D03*
X138150000Y-83475000D03*
X138150000Y-82205000D03*
X138150000Y-80935000D03*
X138150000Y-79665000D03*
X138150000Y-78395000D03*
X138150000Y-77125000D03*
X138150000Y-75855000D03*
X138150000Y-74585000D03*
X138150000Y-73315000D03*
X138150000Y-72045000D03*
D11*
X128450000Y-81565000D03*
X128450000Y-82835000D03*
X121950000Y-82835000D03*
X121950000Y-81565000D03*
D12*
X127450000Y-54355000D02*
X132655000Y-54355000D01*
X134225000Y-55925000D02*
X138050000Y-55925000D01*
X132655000Y-54355000D02*
X134225000Y-55925000D01*
X148625000Y-53385000D02*
X148710000Y-53300000D01*
X147350000Y-53385000D02*
X148625000Y-53385000D01*
X148710000Y-53300000D02*
X150300000Y-53300000D01*
X150300000Y-53300000D02*
X151500000Y-54500000D01*
X151500000Y-54500000D02*
X151500000Y-69000000D01*
X147450000Y-72045000D02*
X148555000Y-72045000D01*
X149300000Y-71300000D02*
X149300000Y-71200000D01*
X148555000Y-72045000D02*
X149300000Y-71300000D01*
X149300000Y-71200000D02*
X149100000Y-71400000D01*
X151500000Y-69000000D02*
X149300000Y-71200000D01*
M02*
