G04 #@! TF.GenerationSoftware,KiCad,Pcbnew,5.1.5+dfsg1-2build2*
G04 #@! TF.CreationDate,2023-09-24T09:38:52+03:00*
G04 #@! TF.ProjectId,board,626f6172-642e-46b6-9963-61645f706362,rev?*
G04 #@! TF.SameCoordinates,Original*
G04 #@! TF.FileFunction,Copper,L1,Top*
G04 #@! TF.FilePolarity,Positive*
%FSLAX46Y46*%
G04 Gerber Fmt 4.6, Leading zero omitted, Abs format (unit mm)*
G04 Created by KiCad (PCBNEW 5.1.5+dfsg1-2build2) date 2023-09-24 09:38:52*
%MOMM*%
%LPD*%
G04 APERTURE LIST*
%ADD10C,2.499360*%
%ADD11R,0.800000X1.800000*%
%ADD12R,1.000000X1.800000*%
%ADD13C,0.100000*%
%ADD14C,0.500000*%
%ADD15C,1.000000*%
G04 APERTURE END LIST*
D10*
X127900000Y-73900000D03*
X122300000Y-87300000D03*
X141300000Y-73900000D03*
X122500000Y-73900000D03*
X136900000Y-73900000D03*
D11*
X121550000Y-80900000D03*
X123450000Y-80900000D03*
X122500000Y-77600000D03*
X138000000Y-80650000D03*
X138950000Y-83950000D03*
X137050000Y-83950000D03*
D12*
X141450000Y-87000000D03*
X138950000Y-87000000D03*
X122700000Y-84100000D03*
X125200000Y-84100000D03*
G04 #@! TA.AperFunction,SMDPad,CuDef*
D13*
G36*
X128664703Y-79990722D02*
G01*
X128679264Y-79992882D01*
X128693543Y-79996459D01*
X128707403Y-80001418D01*
X128720710Y-80007712D01*
X128733336Y-80015280D01*
X128745159Y-80024048D01*
X128756066Y-80033934D01*
X128765952Y-80044841D01*
X128774720Y-80056664D01*
X128782288Y-80069290D01*
X128788582Y-80082597D01*
X128793541Y-80096457D01*
X128797118Y-80110736D01*
X128799278Y-80125297D01*
X128800000Y-80140000D01*
X128800000Y-80440000D01*
X128799278Y-80454703D01*
X128797118Y-80469264D01*
X128793541Y-80483543D01*
X128788582Y-80497403D01*
X128782288Y-80510710D01*
X128774720Y-80523336D01*
X128765952Y-80535159D01*
X128756066Y-80546066D01*
X128745159Y-80555952D01*
X128733336Y-80564720D01*
X128720710Y-80572288D01*
X128707403Y-80578582D01*
X128693543Y-80583541D01*
X128679264Y-80587118D01*
X128664703Y-80589278D01*
X128650000Y-80590000D01*
X127000000Y-80590000D01*
X126985297Y-80589278D01*
X126970736Y-80587118D01*
X126956457Y-80583541D01*
X126942597Y-80578582D01*
X126929290Y-80572288D01*
X126916664Y-80564720D01*
X126904841Y-80555952D01*
X126893934Y-80546066D01*
X126884048Y-80535159D01*
X126875280Y-80523336D01*
X126867712Y-80510710D01*
X126861418Y-80497403D01*
X126856459Y-80483543D01*
X126852882Y-80469264D01*
X126850722Y-80454703D01*
X126850000Y-80440000D01*
X126850000Y-80140000D01*
X126850722Y-80125297D01*
X126852882Y-80110736D01*
X126856459Y-80096457D01*
X126861418Y-80082597D01*
X126867712Y-80069290D01*
X126875280Y-80056664D01*
X126884048Y-80044841D01*
X126893934Y-80033934D01*
X126904841Y-80024048D01*
X126916664Y-80015280D01*
X126929290Y-80007712D01*
X126942597Y-80001418D01*
X126956457Y-79996459D01*
X126970736Y-79992882D01*
X126985297Y-79990722D01*
X127000000Y-79990000D01*
X128650000Y-79990000D01*
X128664703Y-79990722D01*
G37*
G04 #@! TD.AperFunction*
G04 #@! TA.AperFunction,SMDPad,CuDef*
G36*
X128664703Y-81260722D02*
G01*
X128679264Y-81262882D01*
X128693543Y-81266459D01*
X128707403Y-81271418D01*
X128720710Y-81277712D01*
X128733336Y-81285280D01*
X128745159Y-81294048D01*
X128756066Y-81303934D01*
X128765952Y-81314841D01*
X128774720Y-81326664D01*
X128782288Y-81339290D01*
X128788582Y-81352597D01*
X128793541Y-81366457D01*
X128797118Y-81380736D01*
X128799278Y-81395297D01*
X128800000Y-81410000D01*
X128800000Y-81710000D01*
X128799278Y-81724703D01*
X128797118Y-81739264D01*
X128793541Y-81753543D01*
X128788582Y-81767403D01*
X128782288Y-81780710D01*
X128774720Y-81793336D01*
X128765952Y-81805159D01*
X128756066Y-81816066D01*
X128745159Y-81825952D01*
X128733336Y-81834720D01*
X128720710Y-81842288D01*
X128707403Y-81848582D01*
X128693543Y-81853541D01*
X128679264Y-81857118D01*
X128664703Y-81859278D01*
X128650000Y-81860000D01*
X127000000Y-81860000D01*
X126985297Y-81859278D01*
X126970736Y-81857118D01*
X126956457Y-81853541D01*
X126942597Y-81848582D01*
X126929290Y-81842288D01*
X126916664Y-81834720D01*
X126904841Y-81825952D01*
X126893934Y-81816066D01*
X126884048Y-81805159D01*
X126875280Y-81793336D01*
X126867712Y-81780710D01*
X126861418Y-81767403D01*
X126856459Y-81753543D01*
X126852882Y-81739264D01*
X126850722Y-81724703D01*
X126850000Y-81710000D01*
X126850000Y-81410000D01*
X126850722Y-81395297D01*
X126852882Y-81380736D01*
X126856459Y-81366457D01*
X126861418Y-81352597D01*
X126867712Y-81339290D01*
X126875280Y-81326664D01*
X126884048Y-81314841D01*
X126893934Y-81303934D01*
X126904841Y-81294048D01*
X126916664Y-81285280D01*
X126929290Y-81277712D01*
X126942597Y-81271418D01*
X126956457Y-81266459D01*
X126970736Y-81262882D01*
X126985297Y-81260722D01*
X127000000Y-81260000D01*
X128650000Y-81260000D01*
X128664703Y-81260722D01*
G37*
G04 #@! TD.AperFunction*
G04 #@! TA.AperFunction,SMDPad,CuDef*
G36*
X128664703Y-82530722D02*
G01*
X128679264Y-82532882D01*
X128693543Y-82536459D01*
X128707403Y-82541418D01*
X128720710Y-82547712D01*
X128733336Y-82555280D01*
X128745159Y-82564048D01*
X128756066Y-82573934D01*
X128765952Y-82584841D01*
X128774720Y-82596664D01*
X128782288Y-82609290D01*
X128788582Y-82622597D01*
X128793541Y-82636457D01*
X128797118Y-82650736D01*
X128799278Y-82665297D01*
X128800000Y-82680000D01*
X128800000Y-82980000D01*
X128799278Y-82994703D01*
X128797118Y-83009264D01*
X128793541Y-83023543D01*
X128788582Y-83037403D01*
X128782288Y-83050710D01*
X128774720Y-83063336D01*
X128765952Y-83075159D01*
X128756066Y-83086066D01*
X128745159Y-83095952D01*
X128733336Y-83104720D01*
X128720710Y-83112288D01*
X128707403Y-83118582D01*
X128693543Y-83123541D01*
X128679264Y-83127118D01*
X128664703Y-83129278D01*
X128650000Y-83130000D01*
X127000000Y-83130000D01*
X126985297Y-83129278D01*
X126970736Y-83127118D01*
X126956457Y-83123541D01*
X126942597Y-83118582D01*
X126929290Y-83112288D01*
X126916664Y-83104720D01*
X126904841Y-83095952D01*
X126893934Y-83086066D01*
X126884048Y-83075159D01*
X126875280Y-83063336D01*
X126867712Y-83050710D01*
X126861418Y-83037403D01*
X126856459Y-83023543D01*
X126852882Y-83009264D01*
X126850722Y-82994703D01*
X126850000Y-82980000D01*
X126850000Y-82680000D01*
X126850722Y-82665297D01*
X126852882Y-82650736D01*
X126856459Y-82636457D01*
X126861418Y-82622597D01*
X126867712Y-82609290D01*
X126875280Y-82596664D01*
X126884048Y-82584841D01*
X126893934Y-82573934D01*
X126904841Y-82564048D01*
X126916664Y-82555280D01*
X126929290Y-82547712D01*
X126942597Y-82541418D01*
X126956457Y-82536459D01*
X126970736Y-82532882D01*
X126985297Y-82530722D01*
X127000000Y-82530000D01*
X128650000Y-82530000D01*
X128664703Y-82530722D01*
G37*
G04 #@! TD.AperFunction*
G04 #@! TA.AperFunction,SMDPad,CuDef*
G36*
X128664703Y-83800722D02*
G01*
X128679264Y-83802882D01*
X128693543Y-83806459D01*
X128707403Y-83811418D01*
X128720710Y-83817712D01*
X128733336Y-83825280D01*
X128745159Y-83834048D01*
X128756066Y-83843934D01*
X128765952Y-83854841D01*
X128774720Y-83866664D01*
X128782288Y-83879290D01*
X128788582Y-83892597D01*
X128793541Y-83906457D01*
X128797118Y-83920736D01*
X128799278Y-83935297D01*
X128800000Y-83950000D01*
X128800000Y-84250000D01*
X128799278Y-84264703D01*
X128797118Y-84279264D01*
X128793541Y-84293543D01*
X128788582Y-84307403D01*
X128782288Y-84320710D01*
X128774720Y-84333336D01*
X128765952Y-84345159D01*
X128756066Y-84356066D01*
X128745159Y-84365952D01*
X128733336Y-84374720D01*
X128720710Y-84382288D01*
X128707403Y-84388582D01*
X128693543Y-84393541D01*
X128679264Y-84397118D01*
X128664703Y-84399278D01*
X128650000Y-84400000D01*
X127000000Y-84400000D01*
X126985297Y-84399278D01*
X126970736Y-84397118D01*
X126956457Y-84393541D01*
X126942597Y-84388582D01*
X126929290Y-84382288D01*
X126916664Y-84374720D01*
X126904841Y-84365952D01*
X126893934Y-84356066D01*
X126884048Y-84345159D01*
X126875280Y-84333336D01*
X126867712Y-84320710D01*
X126861418Y-84307403D01*
X126856459Y-84293543D01*
X126852882Y-84279264D01*
X126850722Y-84264703D01*
X126850000Y-84250000D01*
X126850000Y-83950000D01*
X126850722Y-83935297D01*
X126852882Y-83920736D01*
X126856459Y-83906457D01*
X126861418Y-83892597D01*
X126867712Y-83879290D01*
X126875280Y-83866664D01*
X126884048Y-83854841D01*
X126893934Y-83843934D01*
X126904841Y-83834048D01*
X126916664Y-83825280D01*
X126929290Y-83817712D01*
X126942597Y-83811418D01*
X126956457Y-83806459D01*
X126970736Y-83802882D01*
X126985297Y-83800722D01*
X127000000Y-83800000D01*
X128650000Y-83800000D01*
X128664703Y-83800722D01*
G37*
G04 #@! TD.AperFunction*
G04 #@! TA.AperFunction,SMDPad,CuDef*
G36*
X128664703Y-85070722D02*
G01*
X128679264Y-85072882D01*
X128693543Y-85076459D01*
X128707403Y-85081418D01*
X128720710Y-85087712D01*
X128733336Y-85095280D01*
X128745159Y-85104048D01*
X128756066Y-85113934D01*
X128765952Y-85124841D01*
X128774720Y-85136664D01*
X128782288Y-85149290D01*
X128788582Y-85162597D01*
X128793541Y-85176457D01*
X128797118Y-85190736D01*
X128799278Y-85205297D01*
X128800000Y-85220000D01*
X128800000Y-85520000D01*
X128799278Y-85534703D01*
X128797118Y-85549264D01*
X128793541Y-85563543D01*
X128788582Y-85577403D01*
X128782288Y-85590710D01*
X128774720Y-85603336D01*
X128765952Y-85615159D01*
X128756066Y-85626066D01*
X128745159Y-85635952D01*
X128733336Y-85644720D01*
X128720710Y-85652288D01*
X128707403Y-85658582D01*
X128693543Y-85663541D01*
X128679264Y-85667118D01*
X128664703Y-85669278D01*
X128650000Y-85670000D01*
X127000000Y-85670000D01*
X126985297Y-85669278D01*
X126970736Y-85667118D01*
X126956457Y-85663541D01*
X126942597Y-85658582D01*
X126929290Y-85652288D01*
X126916664Y-85644720D01*
X126904841Y-85635952D01*
X126893934Y-85626066D01*
X126884048Y-85615159D01*
X126875280Y-85603336D01*
X126867712Y-85590710D01*
X126861418Y-85577403D01*
X126856459Y-85563543D01*
X126852882Y-85549264D01*
X126850722Y-85534703D01*
X126850000Y-85520000D01*
X126850000Y-85220000D01*
X126850722Y-85205297D01*
X126852882Y-85190736D01*
X126856459Y-85176457D01*
X126861418Y-85162597D01*
X126867712Y-85149290D01*
X126875280Y-85136664D01*
X126884048Y-85124841D01*
X126893934Y-85113934D01*
X126904841Y-85104048D01*
X126916664Y-85095280D01*
X126929290Y-85087712D01*
X126942597Y-85081418D01*
X126956457Y-85076459D01*
X126970736Y-85072882D01*
X126985297Y-85070722D01*
X127000000Y-85070000D01*
X128650000Y-85070000D01*
X128664703Y-85070722D01*
G37*
G04 #@! TD.AperFunction*
G04 #@! TA.AperFunction,SMDPad,CuDef*
G36*
X128664703Y-86340722D02*
G01*
X128679264Y-86342882D01*
X128693543Y-86346459D01*
X128707403Y-86351418D01*
X128720710Y-86357712D01*
X128733336Y-86365280D01*
X128745159Y-86374048D01*
X128756066Y-86383934D01*
X128765952Y-86394841D01*
X128774720Y-86406664D01*
X128782288Y-86419290D01*
X128788582Y-86432597D01*
X128793541Y-86446457D01*
X128797118Y-86460736D01*
X128799278Y-86475297D01*
X128800000Y-86490000D01*
X128800000Y-86790000D01*
X128799278Y-86804703D01*
X128797118Y-86819264D01*
X128793541Y-86833543D01*
X128788582Y-86847403D01*
X128782288Y-86860710D01*
X128774720Y-86873336D01*
X128765952Y-86885159D01*
X128756066Y-86896066D01*
X128745159Y-86905952D01*
X128733336Y-86914720D01*
X128720710Y-86922288D01*
X128707403Y-86928582D01*
X128693543Y-86933541D01*
X128679264Y-86937118D01*
X128664703Y-86939278D01*
X128650000Y-86940000D01*
X127000000Y-86940000D01*
X126985297Y-86939278D01*
X126970736Y-86937118D01*
X126956457Y-86933541D01*
X126942597Y-86928582D01*
X126929290Y-86922288D01*
X126916664Y-86914720D01*
X126904841Y-86905952D01*
X126893934Y-86896066D01*
X126884048Y-86885159D01*
X126875280Y-86873336D01*
X126867712Y-86860710D01*
X126861418Y-86847403D01*
X126856459Y-86833543D01*
X126852882Y-86819264D01*
X126850722Y-86804703D01*
X126850000Y-86790000D01*
X126850000Y-86490000D01*
X126850722Y-86475297D01*
X126852882Y-86460736D01*
X126856459Y-86446457D01*
X126861418Y-86432597D01*
X126867712Y-86419290D01*
X126875280Y-86406664D01*
X126884048Y-86394841D01*
X126893934Y-86383934D01*
X126904841Y-86374048D01*
X126916664Y-86365280D01*
X126929290Y-86357712D01*
X126942597Y-86351418D01*
X126956457Y-86346459D01*
X126970736Y-86342882D01*
X126985297Y-86340722D01*
X127000000Y-86340000D01*
X128650000Y-86340000D01*
X128664703Y-86340722D01*
G37*
G04 #@! TD.AperFunction*
G04 #@! TA.AperFunction,SMDPad,CuDef*
G36*
X128664703Y-87610722D02*
G01*
X128679264Y-87612882D01*
X128693543Y-87616459D01*
X128707403Y-87621418D01*
X128720710Y-87627712D01*
X128733336Y-87635280D01*
X128745159Y-87644048D01*
X128756066Y-87653934D01*
X128765952Y-87664841D01*
X128774720Y-87676664D01*
X128782288Y-87689290D01*
X128788582Y-87702597D01*
X128793541Y-87716457D01*
X128797118Y-87730736D01*
X128799278Y-87745297D01*
X128800000Y-87760000D01*
X128800000Y-88060000D01*
X128799278Y-88074703D01*
X128797118Y-88089264D01*
X128793541Y-88103543D01*
X128788582Y-88117403D01*
X128782288Y-88130710D01*
X128774720Y-88143336D01*
X128765952Y-88155159D01*
X128756066Y-88166066D01*
X128745159Y-88175952D01*
X128733336Y-88184720D01*
X128720710Y-88192288D01*
X128707403Y-88198582D01*
X128693543Y-88203541D01*
X128679264Y-88207118D01*
X128664703Y-88209278D01*
X128650000Y-88210000D01*
X127000000Y-88210000D01*
X126985297Y-88209278D01*
X126970736Y-88207118D01*
X126956457Y-88203541D01*
X126942597Y-88198582D01*
X126929290Y-88192288D01*
X126916664Y-88184720D01*
X126904841Y-88175952D01*
X126893934Y-88166066D01*
X126884048Y-88155159D01*
X126875280Y-88143336D01*
X126867712Y-88130710D01*
X126861418Y-88117403D01*
X126856459Y-88103543D01*
X126852882Y-88089264D01*
X126850722Y-88074703D01*
X126850000Y-88060000D01*
X126850000Y-87760000D01*
X126850722Y-87745297D01*
X126852882Y-87730736D01*
X126856459Y-87716457D01*
X126861418Y-87702597D01*
X126867712Y-87689290D01*
X126875280Y-87676664D01*
X126884048Y-87664841D01*
X126893934Y-87653934D01*
X126904841Y-87644048D01*
X126916664Y-87635280D01*
X126929290Y-87627712D01*
X126942597Y-87621418D01*
X126956457Y-87616459D01*
X126970736Y-87612882D01*
X126985297Y-87610722D01*
X127000000Y-87610000D01*
X128650000Y-87610000D01*
X128664703Y-87610722D01*
G37*
G04 #@! TD.AperFunction*
G04 #@! TA.AperFunction,SMDPad,CuDef*
G36*
X133614703Y-87610722D02*
G01*
X133629264Y-87612882D01*
X133643543Y-87616459D01*
X133657403Y-87621418D01*
X133670710Y-87627712D01*
X133683336Y-87635280D01*
X133695159Y-87644048D01*
X133706066Y-87653934D01*
X133715952Y-87664841D01*
X133724720Y-87676664D01*
X133732288Y-87689290D01*
X133738582Y-87702597D01*
X133743541Y-87716457D01*
X133747118Y-87730736D01*
X133749278Y-87745297D01*
X133750000Y-87760000D01*
X133750000Y-88060000D01*
X133749278Y-88074703D01*
X133747118Y-88089264D01*
X133743541Y-88103543D01*
X133738582Y-88117403D01*
X133732288Y-88130710D01*
X133724720Y-88143336D01*
X133715952Y-88155159D01*
X133706066Y-88166066D01*
X133695159Y-88175952D01*
X133683336Y-88184720D01*
X133670710Y-88192288D01*
X133657403Y-88198582D01*
X133643543Y-88203541D01*
X133629264Y-88207118D01*
X133614703Y-88209278D01*
X133600000Y-88210000D01*
X131950000Y-88210000D01*
X131935297Y-88209278D01*
X131920736Y-88207118D01*
X131906457Y-88203541D01*
X131892597Y-88198582D01*
X131879290Y-88192288D01*
X131866664Y-88184720D01*
X131854841Y-88175952D01*
X131843934Y-88166066D01*
X131834048Y-88155159D01*
X131825280Y-88143336D01*
X131817712Y-88130710D01*
X131811418Y-88117403D01*
X131806459Y-88103543D01*
X131802882Y-88089264D01*
X131800722Y-88074703D01*
X131800000Y-88060000D01*
X131800000Y-87760000D01*
X131800722Y-87745297D01*
X131802882Y-87730736D01*
X131806459Y-87716457D01*
X131811418Y-87702597D01*
X131817712Y-87689290D01*
X131825280Y-87676664D01*
X131834048Y-87664841D01*
X131843934Y-87653934D01*
X131854841Y-87644048D01*
X131866664Y-87635280D01*
X131879290Y-87627712D01*
X131892597Y-87621418D01*
X131906457Y-87616459D01*
X131920736Y-87612882D01*
X131935297Y-87610722D01*
X131950000Y-87610000D01*
X133600000Y-87610000D01*
X133614703Y-87610722D01*
G37*
G04 #@! TD.AperFunction*
G04 #@! TA.AperFunction,SMDPad,CuDef*
G36*
X133614703Y-86340722D02*
G01*
X133629264Y-86342882D01*
X133643543Y-86346459D01*
X133657403Y-86351418D01*
X133670710Y-86357712D01*
X133683336Y-86365280D01*
X133695159Y-86374048D01*
X133706066Y-86383934D01*
X133715952Y-86394841D01*
X133724720Y-86406664D01*
X133732288Y-86419290D01*
X133738582Y-86432597D01*
X133743541Y-86446457D01*
X133747118Y-86460736D01*
X133749278Y-86475297D01*
X133750000Y-86490000D01*
X133750000Y-86790000D01*
X133749278Y-86804703D01*
X133747118Y-86819264D01*
X133743541Y-86833543D01*
X133738582Y-86847403D01*
X133732288Y-86860710D01*
X133724720Y-86873336D01*
X133715952Y-86885159D01*
X133706066Y-86896066D01*
X133695159Y-86905952D01*
X133683336Y-86914720D01*
X133670710Y-86922288D01*
X133657403Y-86928582D01*
X133643543Y-86933541D01*
X133629264Y-86937118D01*
X133614703Y-86939278D01*
X133600000Y-86940000D01*
X131950000Y-86940000D01*
X131935297Y-86939278D01*
X131920736Y-86937118D01*
X131906457Y-86933541D01*
X131892597Y-86928582D01*
X131879290Y-86922288D01*
X131866664Y-86914720D01*
X131854841Y-86905952D01*
X131843934Y-86896066D01*
X131834048Y-86885159D01*
X131825280Y-86873336D01*
X131817712Y-86860710D01*
X131811418Y-86847403D01*
X131806459Y-86833543D01*
X131802882Y-86819264D01*
X131800722Y-86804703D01*
X131800000Y-86790000D01*
X131800000Y-86490000D01*
X131800722Y-86475297D01*
X131802882Y-86460736D01*
X131806459Y-86446457D01*
X131811418Y-86432597D01*
X131817712Y-86419290D01*
X131825280Y-86406664D01*
X131834048Y-86394841D01*
X131843934Y-86383934D01*
X131854841Y-86374048D01*
X131866664Y-86365280D01*
X131879290Y-86357712D01*
X131892597Y-86351418D01*
X131906457Y-86346459D01*
X131920736Y-86342882D01*
X131935297Y-86340722D01*
X131950000Y-86340000D01*
X133600000Y-86340000D01*
X133614703Y-86340722D01*
G37*
G04 #@! TD.AperFunction*
G04 #@! TA.AperFunction,SMDPad,CuDef*
G36*
X133614703Y-85070722D02*
G01*
X133629264Y-85072882D01*
X133643543Y-85076459D01*
X133657403Y-85081418D01*
X133670710Y-85087712D01*
X133683336Y-85095280D01*
X133695159Y-85104048D01*
X133706066Y-85113934D01*
X133715952Y-85124841D01*
X133724720Y-85136664D01*
X133732288Y-85149290D01*
X133738582Y-85162597D01*
X133743541Y-85176457D01*
X133747118Y-85190736D01*
X133749278Y-85205297D01*
X133750000Y-85220000D01*
X133750000Y-85520000D01*
X133749278Y-85534703D01*
X133747118Y-85549264D01*
X133743541Y-85563543D01*
X133738582Y-85577403D01*
X133732288Y-85590710D01*
X133724720Y-85603336D01*
X133715952Y-85615159D01*
X133706066Y-85626066D01*
X133695159Y-85635952D01*
X133683336Y-85644720D01*
X133670710Y-85652288D01*
X133657403Y-85658582D01*
X133643543Y-85663541D01*
X133629264Y-85667118D01*
X133614703Y-85669278D01*
X133600000Y-85670000D01*
X131950000Y-85670000D01*
X131935297Y-85669278D01*
X131920736Y-85667118D01*
X131906457Y-85663541D01*
X131892597Y-85658582D01*
X131879290Y-85652288D01*
X131866664Y-85644720D01*
X131854841Y-85635952D01*
X131843934Y-85626066D01*
X131834048Y-85615159D01*
X131825280Y-85603336D01*
X131817712Y-85590710D01*
X131811418Y-85577403D01*
X131806459Y-85563543D01*
X131802882Y-85549264D01*
X131800722Y-85534703D01*
X131800000Y-85520000D01*
X131800000Y-85220000D01*
X131800722Y-85205297D01*
X131802882Y-85190736D01*
X131806459Y-85176457D01*
X131811418Y-85162597D01*
X131817712Y-85149290D01*
X131825280Y-85136664D01*
X131834048Y-85124841D01*
X131843934Y-85113934D01*
X131854841Y-85104048D01*
X131866664Y-85095280D01*
X131879290Y-85087712D01*
X131892597Y-85081418D01*
X131906457Y-85076459D01*
X131920736Y-85072882D01*
X131935297Y-85070722D01*
X131950000Y-85070000D01*
X133600000Y-85070000D01*
X133614703Y-85070722D01*
G37*
G04 #@! TD.AperFunction*
G04 #@! TA.AperFunction,SMDPad,CuDef*
G36*
X133614703Y-83800722D02*
G01*
X133629264Y-83802882D01*
X133643543Y-83806459D01*
X133657403Y-83811418D01*
X133670710Y-83817712D01*
X133683336Y-83825280D01*
X133695159Y-83834048D01*
X133706066Y-83843934D01*
X133715952Y-83854841D01*
X133724720Y-83866664D01*
X133732288Y-83879290D01*
X133738582Y-83892597D01*
X133743541Y-83906457D01*
X133747118Y-83920736D01*
X133749278Y-83935297D01*
X133750000Y-83950000D01*
X133750000Y-84250000D01*
X133749278Y-84264703D01*
X133747118Y-84279264D01*
X133743541Y-84293543D01*
X133738582Y-84307403D01*
X133732288Y-84320710D01*
X133724720Y-84333336D01*
X133715952Y-84345159D01*
X133706066Y-84356066D01*
X133695159Y-84365952D01*
X133683336Y-84374720D01*
X133670710Y-84382288D01*
X133657403Y-84388582D01*
X133643543Y-84393541D01*
X133629264Y-84397118D01*
X133614703Y-84399278D01*
X133600000Y-84400000D01*
X131950000Y-84400000D01*
X131935297Y-84399278D01*
X131920736Y-84397118D01*
X131906457Y-84393541D01*
X131892597Y-84388582D01*
X131879290Y-84382288D01*
X131866664Y-84374720D01*
X131854841Y-84365952D01*
X131843934Y-84356066D01*
X131834048Y-84345159D01*
X131825280Y-84333336D01*
X131817712Y-84320710D01*
X131811418Y-84307403D01*
X131806459Y-84293543D01*
X131802882Y-84279264D01*
X131800722Y-84264703D01*
X131800000Y-84250000D01*
X131800000Y-83950000D01*
X131800722Y-83935297D01*
X131802882Y-83920736D01*
X131806459Y-83906457D01*
X131811418Y-83892597D01*
X131817712Y-83879290D01*
X131825280Y-83866664D01*
X131834048Y-83854841D01*
X131843934Y-83843934D01*
X131854841Y-83834048D01*
X131866664Y-83825280D01*
X131879290Y-83817712D01*
X131892597Y-83811418D01*
X131906457Y-83806459D01*
X131920736Y-83802882D01*
X131935297Y-83800722D01*
X131950000Y-83800000D01*
X133600000Y-83800000D01*
X133614703Y-83800722D01*
G37*
G04 #@! TD.AperFunction*
G04 #@! TA.AperFunction,SMDPad,CuDef*
G36*
X133614703Y-82530722D02*
G01*
X133629264Y-82532882D01*
X133643543Y-82536459D01*
X133657403Y-82541418D01*
X133670710Y-82547712D01*
X133683336Y-82555280D01*
X133695159Y-82564048D01*
X133706066Y-82573934D01*
X133715952Y-82584841D01*
X133724720Y-82596664D01*
X133732288Y-82609290D01*
X133738582Y-82622597D01*
X133743541Y-82636457D01*
X133747118Y-82650736D01*
X133749278Y-82665297D01*
X133750000Y-82680000D01*
X133750000Y-82980000D01*
X133749278Y-82994703D01*
X133747118Y-83009264D01*
X133743541Y-83023543D01*
X133738582Y-83037403D01*
X133732288Y-83050710D01*
X133724720Y-83063336D01*
X133715952Y-83075159D01*
X133706066Y-83086066D01*
X133695159Y-83095952D01*
X133683336Y-83104720D01*
X133670710Y-83112288D01*
X133657403Y-83118582D01*
X133643543Y-83123541D01*
X133629264Y-83127118D01*
X133614703Y-83129278D01*
X133600000Y-83130000D01*
X131950000Y-83130000D01*
X131935297Y-83129278D01*
X131920736Y-83127118D01*
X131906457Y-83123541D01*
X131892597Y-83118582D01*
X131879290Y-83112288D01*
X131866664Y-83104720D01*
X131854841Y-83095952D01*
X131843934Y-83086066D01*
X131834048Y-83075159D01*
X131825280Y-83063336D01*
X131817712Y-83050710D01*
X131811418Y-83037403D01*
X131806459Y-83023543D01*
X131802882Y-83009264D01*
X131800722Y-82994703D01*
X131800000Y-82980000D01*
X131800000Y-82680000D01*
X131800722Y-82665297D01*
X131802882Y-82650736D01*
X131806459Y-82636457D01*
X131811418Y-82622597D01*
X131817712Y-82609290D01*
X131825280Y-82596664D01*
X131834048Y-82584841D01*
X131843934Y-82573934D01*
X131854841Y-82564048D01*
X131866664Y-82555280D01*
X131879290Y-82547712D01*
X131892597Y-82541418D01*
X131906457Y-82536459D01*
X131920736Y-82532882D01*
X131935297Y-82530722D01*
X131950000Y-82530000D01*
X133600000Y-82530000D01*
X133614703Y-82530722D01*
G37*
G04 #@! TD.AperFunction*
G04 #@! TA.AperFunction,SMDPad,CuDef*
G36*
X133614703Y-81260722D02*
G01*
X133629264Y-81262882D01*
X133643543Y-81266459D01*
X133657403Y-81271418D01*
X133670710Y-81277712D01*
X133683336Y-81285280D01*
X133695159Y-81294048D01*
X133706066Y-81303934D01*
X133715952Y-81314841D01*
X133724720Y-81326664D01*
X133732288Y-81339290D01*
X133738582Y-81352597D01*
X133743541Y-81366457D01*
X133747118Y-81380736D01*
X133749278Y-81395297D01*
X133750000Y-81410000D01*
X133750000Y-81710000D01*
X133749278Y-81724703D01*
X133747118Y-81739264D01*
X133743541Y-81753543D01*
X133738582Y-81767403D01*
X133732288Y-81780710D01*
X133724720Y-81793336D01*
X133715952Y-81805159D01*
X133706066Y-81816066D01*
X133695159Y-81825952D01*
X133683336Y-81834720D01*
X133670710Y-81842288D01*
X133657403Y-81848582D01*
X133643543Y-81853541D01*
X133629264Y-81857118D01*
X133614703Y-81859278D01*
X133600000Y-81860000D01*
X131950000Y-81860000D01*
X131935297Y-81859278D01*
X131920736Y-81857118D01*
X131906457Y-81853541D01*
X131892597Y-81848582D01*
X131879290Y-81842288D01*
X131866664Y-81834720D01*
X131854841Y-81825952D01*
X131843934Y-81816066D01*
X131834048Y-81805159D01*
X131825280Y-81793336D01*
X131817712Y-81780710D01*
X131811418Y-81767403D01*
X131806459Y-81753543D01*
X131802882Y-81739264D01*
X131800722Y-81724703D01*
X131800000Y-81710000D01*
X131800000Y-81410000D01*
X131800722Y-81395297D01*
X131802882Y-81380736D01*
X131806459Y-81366457D01*
X131811418Y-81352597D01*
X131817712Y-81339290D01*
X131825280Y-81326664D01*
X131834048Y-81314841D01*
X131843934Y-81303934D01*
X131854841Y-81294048D01*
X131866664Y-81285280D01*
X131879290Y-81277712D01*
X131892597Y-81271418D01*
X131906457Y-81266459D01*
X131920736Y-81262882D01*
X131935297Y-81260722D01*
X131950000Y-81260000D01*
X133600000Y-81260000D01*
X133614703Y-81260722D01*
G37*
G04 #@! TD.AperFunction*
G04 #@! TA.AperFunction,SMDPad,CuDef*
G36*
X133614703Y-79990722D02*
G01*
X133629264Y-79992882D01*
X133643543Y-79996459D01*
X133657403Y-80001418D01*
X133670710Y-80007712D01*
X133683336Y-80015280D01*
X133695159Y-80024048D01*
X133706066Y-80033934D01*
X133715952Y-80044841D01*
X133724720Y-80056664D01*
X133732288Y-80069290D01*
X133738582Y-80082597D01*
X133743541Y-80096457D01*
X133747118Y-80110736D01*
X133749278Y-80125297D01*
X133750000Y-80140000D01*
X133750000Y-80440000D01*
X133749278Y-80454703D01*
X133747118Y-80469264D01*
X133743541Y-80483543D01*
X133738582Y-80497403D01*
X133732288Y-80510710D01*
X133724720Y-80523336D01*
X133715952Y-80535159D01*
X133706066Y-80546066D01*
X133695159Y-80555952D01*
X133683336Y-80564720D01*
X133670710Y-80572288D01*
X133657403Y-80578582D01*
X133643543Y-80583541D01*
X133629264Y-80587118D01*
X133614703Y-80589278D01*
X133600000Y-80590000D01*
X131950000Y-80590000D01*
X131935297Y-80589278D01*
X131920736Y-80587118D01*
X131906457Y-80583541D01*
X131892597Y-80578582D01*
X131879290Y-80572288D01*
X131866664Y-80564720D01*
X131854841Y-80555952D01*
X131843934Y-80546066D01*
X131834048Y-80535159D01*
X131825280Y-80523336D01*
X131817712Y-80510710D01*
X131811418Y-80497403D01*
X131806459Y-80483543D01*
X131802882Y-80469264D01*
X131800722Y-80454703D01*
X131800000Y-80440000D01*
X131800000Y-80140000D01*
X131800722Y-80125297D01*
X131802882Y-80110736D01*
X131806459Y-80096457D01*
X131811418Y-80082597D01*
X131817712Y-80069290D01*
X131825280Y-80056664D01*
X131834048Y-80044841D01*
X131843934Y-80033934D01*
X131854841Y-80024048D01*
X131866664Y-80015280D01*
X131879290Y-80007712D01*
X131892597Y-80001418D01*
X131906457Y-79996459D01*
X131920736Y-79992882D01*
X131935297Y-79990722D01*
X131950000Y-79990000D01*
X133600000Y-79990000D01*
X133614703Y-79990722D01*
G37*
G04 #@! TD.AperFunction*
D10*
X132600000Y-73900000D03*
D14*
X127900000Y-80215000D02*
X127825000Y-80290000D01*
X127900000Y-73900000D02*
X127900000Y-80215000D01*
X122300000Y-87300000D02*
X124900000Y-87300000D01*
X126830000Y-85370000D02*
X127825000Y-85370000D01*
X124900000Y-87300000D02*
X126830000Y-85370000D01*
X141300000Y-86850000D02*
X141450000Y-87000000D01*
X141300000Y-73900000D02*
X141300000Y-86850000D01*
D15*
X122500000Y-73900000D02*
X122500000Y-77600000D01*
D14*
X136900000Y-75667314D02*
X136900000Y-73900000D01*
X136900000Y-80450000D02*
X136900000Y-75667314D01*
X137100000Y-80650000D02*
X136900000Y-80450000D01*
X138000000Y-80650000D02*
X137100000Y-80650000D01*
X127825000Y-88210000D02*
X128715000Y-89100000D01*
X127825000Y-87910000D02*
X127825000Y-88210000D01*
X128715000Y-89100000D02*
X135300000Y-89100000D01*
X137050000Y-87350000D02*
X137050000Y-83950000D01*
X135300000Y-89100000D02*
X137050000Y-87350000D01*
X120650000Y-80900000D02*
X120000000Y-81550000D01*
X121550000Y-80900000D02*
X120650000Y-80900000D01*
X120000000Y-81550000D02*
X120000000Y-89000000D01*
X120000000Y-89000000D02*
X120600000Y-89600000D01*
X126135000Y-89600000D02*
X127825000Y-87910000D01*
X120600000Y-89600000D02*
X126135000Y-89600000D01*
X122700000Y-84100000D02*
X122700000Y-83200000D01*
X123450000Y-82450000D02*
X123450000Y-80900000D01*
X122700000Y-83200000D02*
X123450000Y-82450000D01*
X138950000Y-83950000D02*
X138950000Y-87000000D01*
X125200000Y-84100000D02*
X127825000Y-84100000D01*
X127825000Y-82830000D02*
X127825000Y-84100000D01*
X129760000Y-81560000D02*
X127825000Y-81560000D01*
X130200000Y-82000000D02*
X129760000Y-81560000D01*
X130200000Y-86200000D02*
X130200000Y-82000000D01*
X129700000Y-86700000D02*
X130200000Y-86200000D01*
X128125000Y-86700000D02*
X129700000Y-86700000D01*
X132775000Y-74075000D02*
X132600000Y-73900000D01*
X132775000Y-80290000D02*
X132775000Y-74075000D01*
M02*
