G04 #@! TF.GenerationSoftware,KiCad,Pcbnew,5.1.5+dfsg1-2build2*
G04 #@! TF.CreationDate,2023-09-26T06:21:29+03:00*
G04 #@! TF.ProjectId,testBoardRectPad,74657374-426f-4617-9264-526563745061,rev?*
G04 #@! TF.SameCoordinates,Original*
G04 #@! TF.FileFunction,Copper,L1,Top*
G04 #@! TF.FilePolarity,Positive*
%FSLAX46Y46*%
G04 Gerber Fmt 4.6, Leading zero omitted, Abs format (unit mm)*
G04 Created by KiCad (PCBNEW 5.1.5+dfsg1-2build2) date 2023-09-26 06:21:29*
%MOMM*%
%LPD*%
G04 APERTURE LIST*
%ADD10O,1.600000X1.600000*%
%ADD11R,1.600000X1.600000*%
%ADD12C,0.100000*%
%ADD13C,1.524000*%
G04 APERTURE END LIST*
D10*
X117720000Y-70000000D03*
X110100000Y-85240000D03*
X117720000Y-72540000D03*
X110100000Y-82700000D03*
X117720000Y-75080000D03*
X110100000Y-80160000D03*
X117720000Y-77620000D03*
X110100000Y-77620000D03*
X117720000Y-80160000D03*
X110100000Y-75080000D03*
X117720000Y-82700000D03*
X110100000Y-72540000D03*
X117720000Y-85240000D03*
D11*
X110100000Y-70000000D03*
G04 #@! TA.AperFunction,SMDPad,CuDef*
D12*
G36*
X-1635297Y4109278D02*
G01*
X-1620736Y4107118D01*
X-1606457Y4103541D01*
X-1592597Y4098582D01*
X-1579290Y4092288D01*
X-1566664Y4084720D01*
X-1554841Y4075952D01*
X-1543934Y4066066D01*
X-1534048Y4055159D01*
X-1525280Y4043336D01*
X-1517712Y4030710D01*
X-1511418Y4017403D01*
X-1506459Y4003543D01*
X-1502882Y3989264D01*
X-1500722Y3974703D01*
X-1500000Y3960000D01*
X-1500000Y3660000D01*
X-1500722Y3645297D01*
X-1502882Y3630736D01*
X-1506459Y3616457D01*
X-1511418Y3602597D01*
X-1517712Y3589290D01*
X-1525280Y3576664D01*
X-1534048Y3564841D01*
X-1543934Y3553934D01*
X-1554841Y3544048D01*
X-1566664Y3535280D01*
X-1579290Y3527712D01*
X-1592597Y3521418D01*
X-1606457Y3516459D01*
X-1620736Y3512882D01*
X-1635297Y3510722D01*
X-1650000Y3510000D01*
X-3300000Y3510000D01*
X-3314703Y3510722D01*
X-3329264Y3512882D01*
X-3343543Y3516459D01*
X-3357403Y3521418D01*
X-3370710Y3527712D01*
X-3383336Y3535280D01*
X-3395159Y3544048D01*
X-3406066Y3553934D01*
X-3415952Y3564841D01*
X-3424720Y3576664D01*
X-3432288Y3589290D01*
X-3438582Y3602597D01*
X-3443541Y3616457D01*
X-3447118Y3630736D01*
X-3449278Y3645297D01*
X-3450000Y3660000D01*
X-3450000Y3960000D01*
X-3449278Y3974703D01*
X-3447118Y3989264D01*
X-3443541Y4003543D01*
X-3438582Y4017403D01*
X-3432288Y4030710D01*
X-3424720Y4043336D01*
X-3415952Y4055159D01*
X-3406066Y4066066D01*
X-3395159Y4075952D01*
X-3383336Y4084720D01*
X-3370710Y4092288D01*
X-3357403Y4098582D01*
X-3343543Y4103541D01*
X-3329264Y4107118D01*
X-3314703Y4109278D01*
X-3300000Y4110000D01*
X-1650000Y4110000D01*
X-1635297Y4109278D01*
G37*
G04 #@! TD.AperFunction*
G04 #@! TA.AperFunction,SMDPad,CuDef*
G36*
X-1635297Y2839278D02*
G01*
X-1620736Y2837118D01*
X-1606457Y2833541D01*
X-1592597Y2828582D01*
X-1579290Y2822288D01*
X-1566664Y2814720D01*
X-1554841Y2805952D01*
X-1543934Y2796066D01*
X-1534048Y2785159D01*
X-1525280Y2773336D01*
X-1517712Y2760710D01*
X-1511418Y2747403D01*
X-1506459Y2733543D01*
X-1502882Y2719264D01*
X-1500722Y2704703D01*
X-1500000Y2690000D01*
X-1500000Y2390000D01*
X-1500722Y2375297D01*
X-1502882Y2360736D01*
X-1506459Y2346457D01*
X-1511418Y2332597D01*
X-1517712Y2319290D01*
X-1525280Y2306664D01*
X-1534048Y2294841D01*
X-1543934Y2283934D01*
X-1554841Y2274048D01*
X-1566664Y2265280D01*
X-1579290Y2257712D01*
X-1592597Y2251418D01*
X-1606457Y2246459D01*
X-1620736Y2242882D01*
X-1635297Y2240722D01*
X-1650000Y2240000D01*
X-3300000Y2240000D01*
X-3314703Y2240722D01*
X-3329264Y2242882D01*
X-3343543Y2246459D01*
X-3357403Y2251418D01*
X-3370710Y2257712D01*
X-3383336Y2265280D01*
X-3395159Y2274048D01*
X-3406066Y2283934D01*
X-3415952Y2294841D01*
X-3424720Y2306664D01*
X-3432288Y2319290D01*
X-3438582Y2332597D01*
X-3443541Y2346457D01*
X-3447118Y2360736D01*
X-3449278Y2375297D01*
X-3450000Y2390000D01*
X-3450000Y2690000D01*
X-3449278Y2704703D01*
X-3447118Y2719264D01*
X-3443541Y2733543D01*
X-3438582Y2747403D01*
X-3432288Y2760710D01*
X-3424720Y2773336D01*
X-3415952Y2785159D01*
X-3406066Y2796066D01*
X-3395159Y2805952D01*
X-3383336Y2814720D01*
X-3370710Y2822288D01*
X-3357403Y2828582D01*
X-3343543Y2833541D01*
X-3329264Y2837118D01*
X-3314703Y2839278D01*
X-3300000Y2840000D01*
X-1650000Y2840000D01*
X-1635297Y2839278D01*
G37*
G04 #@! TD.AperFunction*
G04 #@! TA.AperFunction,SMDPad,CuDef*
G36*
X-1635297Y1569278D02*
G01*
X-1620736Y1567118D01*
X-1606457Y1563541D01*
X-1592597Y1558582D01*
X-1579290Y1552288D01*
X-1566664Y1544720D01*
X-1554841Y1535952D01*
X-1543934Y1526066D01*
X-1534048Y1515159D01*
X-1525280Y1503336D01*
X-1517712Y1490710D01*
X-1511418Y1477403D01*
X-1506459Y1463543D01*
X-1502882Y1449264D01*
X-1500722Y1434703D01*
X-1500000Y1420000D01*
X-1500000Y1120000D01*
X-1500722Y1105297D01*
X-1502882Y1090736D01*
X-1506459Y1076457D01*
X-1511418Y1062597D01*
X-1517712Y1049290D01*
X-1525280Y1036664D01*
X-1534048Y1024841D01*
X-1543934Y1013934D01*
X-1554841Y1004048D01*
X-1566664Y995280D01*
X-1579290Y987712D01*
X-1592597Y981418D01*
X-1606457Y976459D01*
X-1620736Y972882D01*
X-1635297Y970722D01*
X-1650000Y970000D01*
X-3300000Y970000D01*
X-3314703Y970722D01*
X-3329264Y972882D01*
X-3343543Y976459D01*
X-3357403Y981418D01*
X-3370710Y987712D01*
X-3383336Y995280D01*
X-3395159Y1004048D01*
X-3406066Y1013934D01*
X-3415952Y1024841D01*
X-3424720Y1036664D01*
X-3432288Y1049290D01*
X-3438582Y1062597D01*
X-3443541Y1076457D01*
X-3447118Y1090736D01*
X-3449278Y1105297D01*
X-3450000Y1120000D01*
X-3450000Y1420000D01*
X-3449278Y1434703D01*
X-3447118Y1449264D01*
X-3443541Y1463543D01*
X-3438582Y1477403D01*
X-3432288Y1490710D01*
X-3424720Y1503336D01*
X-3415952Y1515159D01*
X-3406066Y1526066D01*
X-3395159Y1535952D01*
X-3383336Y1544720D01*
X-3370710Y1552288D01*
X-3357403Y1558582D01*
X-3343543Y1563541D01*
X-3329264Y1567118D01*
X-3314703Y1569278D01*
X-3300000Y1570000D01*
X-1650000Y1570000D01*
X-1635297Y1569278D01*
G37*
G04 #@! TD.AperFunction*
G04 #@! TA.AperFunction,SMDPad,CuDef*
G36*
X-1635297Y299278D02*
G01*
X-1620736Y297118D01*
X-1606457Y293541D01*
X-1592597Y288582D01*
X-1579290Y282288D01*
X-1566664Y274720D01*
X-1554841Y265952D01*
X-1543934Y256066D01*
X-1534048Y245159D01*
X-1525280Y233336D01*
X-1517712Y220710D01*
X-1511418Y207403D01*
X-1506459Y193543D01*
X-1502882Y179264D01*
X-1500722Y164703D01*
X-1500000Y150000D01*
X-1500000Y-150000D01*
X-1500722Y-164703D01*
X-1502882Y-179264D01*
X-1506459Y-193543D01*
X-1511418Y-207403D01*
X-1517712Y-220710D01*
X-1525280Y-233336D01*
X-1534048Y-245159D01*
X-1543934Y-256066D01*
X-1554841Y-265952D01*
X-1566664Y-274720D01*
X-1579290Y-282288D01*
X-1592597Y-288582D01*
X-1606457Y-293541D01*
X-1620736Y-297118D01*
X-1635297Y-299278D01*
X-1650000Y-300000D01*
X-3300000Y-300000D01*
X-3314703Y-299278D01*
X-3329264Y-297118D01*
X-3343543Y-293541D01*
X-3357403Y-288582D01*
X-3370710Y-282288D01*
X-3383336Y-274720D01*
X-3395159Y-265952D01*
X-3406066Y-256066D01*
X-3415952Y-245159D01*
X-3424720Y-233336D01*
X-3432288Y-220710D01*
X-3438582Y-207403D01*
X-3443541Y-193543D01*
X-3447118Y-179264D01*
X-3449278Y-164703D01*
X-3450000Y-150000D01*
X-3450000Y150000D01*
X-3449278Y164703D01*
X-3447118Y179264D01*
X-3443541Y193543D01*
X-3438582Y207403D01*
X-3432288Y220710D01*
X-3424720Y233336D01*
X-3415952Y245159D01*
X-3406066Y256066D01*
X-3395159Y265952D01*
X-3383336Y274720D01*
X-3370710Y282288D01*
X-3357403Y288582D01*
X-3343543Y293541D01*
X-3329264Y297118D01*
X-3314703Y299278D01*
X-3300000Y300000D01*
X-1650000Y300000D01*
X-1635297Y299278D01*
G37*
G04 #@! TD.AperFunction*
G04 #@! TA.AperFunction,SMDPad,CuDef*
G36*
X-1635297Y-970722D02*
G01*
X-1620736Y-972882D01*
X-1606457Y-976459D01*
X-1592597Y-981418D01*
X-1579290Y-987712D01*
X-1566664Y-995280D01*
X-1554841Y-1004048D01*
X-1543934Y-1013934D01*
X-1534048Y-1024841D01*
X-1525280Y-1036664D01*
X-1517712Y-1049290D01*
X-1511418Y-1062597D01*
X-1506459Y-1076457D01*
X-1502882Y-1090736D01*
X-1500722Y-1105297D01*
X-1500000Y-1120000D01*
X-1500000Y-1420000D01*
X-1500722Y-1434703D01*
X-1502882Y-1449264D01*
X-1506459Y-1463543D01*
X-1511418Y-1477403D01*
X-1517712Y-1490710D01*
X-1525280Y-1503336D01*
X-1534048Y-1515159D01*
X-1543934Y-1526066D01*
X-1554841Y-1535952D01*
X-1566664Y-1544720D01*
X-1579290Y-1552288D01*
X-1592597Y-1558582D01*
X-1606457Y-1563541D01*
X-1620736Y-1567118D01*
X-1635297Y-1569278D01*
X-1650000Y-1570000D01*
X-3300000Y-1570000D01*
X-3314703Y-1569278D01*
X-3329264Y-1567118D01*
X-3343543Y-1563541D01*
X-3357403Y-1558582D01*
X-3370710Y-1552288D01*
X-3383336Y-1544720D01*
X-3395159Y-1535952D01*
X-3406066Y-1526066D01*
X-3415952Y-1515159D01*
X-3424720Y-1503336D01*
X-3432288Y-1490710D01*
X-3438582Y-1477403D01*
X-3443541Y-1463543D01*
X-3447118Y-1449264D01*
X-3449278Y-1434703D01*
X-3450000Y-1420000D01*
X-3450000Y-1120000D01*
X-3449278Y-1105297D01*
X-3447118Y-1090736D01*
X-3443541Y-1076457D01*
X-3438582Y-1062597D01*
X-3432288Y-1049290D01*
X-3424720Y-1036664D01*
X-3415952Y-1024841D01*
X-3406066Y-1013934D01*
X-3395159Y-1004048D01*
X-3383336Y-995280D01*
X-3370710Y-987712D01*
X-3357403Y-981418D01*
X-3343543Y-976459D01*
X-3329264Y-972882D01*
X-3314703Y-970722D01*
X-3300000Y-970000D01*
X-1650000Y-970000D01*
X-1635297Y-970722D01*
G37*
G04 #@! TD.AperFunction*
G04 #@! TA.AperFunction,SMDPad,CuDef*
G36*
X-1635297Y-2240722D02*
G01*
X-1620736Y-2242882D01*
X-1606457Y-2246459D01*
X-1592597Y-2251418D01*
X-1579290Y-2257712D01*
X-1566664Y-2265280D01*
X-1554841Y-2274048D01*
X-1543934Y-2283934D01*
X-1534048Y-2294841D01*
X-1525280Y-2306664D01*
X-1517712Y-2319290D01*
X-1511418Y-2332597D01*
X-1506459Y-2346457D01*
X-1502882Y-2360736D01*
X-1500722Y-2375297D01*
X-1500000Y-2390000D01*
X-1500000Y-2690000D01*
X-1500722Y-2704703D01*
X-1502882Y-2719264D01*
X-1506459Y-2733543D01*
X-1511418Y-2747403D01*
X-1517712Y-2760710D01*
X-1525280Y-2773336D01*
X-1534048Y-2785159D01*
X-1543934Y-2796066D01*
X-1554841Y-2805952D01*
X-1566664Y-2814720D01*
X-1579290Y-2822288D01*
X-1592597Y-2828582D01*
X-1606457Y-2833541D01*
X-1620736Y-2837118D01*
X-1635297Y-2839278D01*
X-1650000Y-2840000D01*
X-3300000Y-2840000D01*
X-3314703Y-2839278D01*
X-3329264Y-2837118D01*
X-3343543Y-2833541D01*
X-3357403Y-2828582D01*
X-3370710Y-2822288D01*
X-3383336Y-2814720D01*
X-3395159Y-2805952D01*
X-3406066Y-2796066D01*
X-3415952Y-2785159D01*
X-3424720Y-2773336D01*
X-3432288Y-2760710D01*
X-3438582Y-2747403D01*
X-3443541Y-2733543D01*
X-3447118Y-2719264D01*
X-3449278Y-2704703D01*
X-3450000Y-2690000D01*
X-3450000Y-2390000D01*
X-3449278Y-2375297D01*
X-3447118Y-2360736D01*
X-3443541Y-2346457D01*
X-3438582Y-2332597D01*
X-3432288Y-2319290D01*
X-3424720Y-2306664D01*
X-3415952Y-2294841D01*
X-3406066Y-2283934D01*
X-3395159Y-2274048D01*
X-3383336Y-2265280D01*
X-3370710Y-2257712D01*
X-3357403Y-2251418D01*
X-3343543Y-2246459D01*
X-3329264Y-2242882D01*
X-3314703Y-2240722D01*
X-3300000Y-2240000D01*
X-1650000Y-2240000D01*
X-1635297Y-2240722D01*
G37*
G04 #@! TD.AperFunction*
G04 #@! TA.AperFunction,SMDPad,CuDef*
G36*
X-1635297Y-3510722D02*
G01*
X-1620736Y-3512882D01*
X-1606457Y-3516459D01*
X-1592597Y-3521418D01*
X-1579290Y-3527712D01*
X-1566664Y-3535280D01*
X-1554841Y-3544048D01*
X-1543934Y-3553934D01*
X-1534048Y-3564841D01*
X-1525280Y-3576664D01*
X-1517712Y-3589290D01*
X-1511418Y-3602597D01*
X-1506459Y-3616457D01*
X-1502882Y-3630736D01*
X-1500722Y-3645297D01*
X-1500000Y-3660000D01*
X-1500000Y-3960000D01*
X-1500722Y-3974703D01*
X-1502882Y-3989264D01*
X-1506459Y-4003543D01*
X-1511418Y-4017403D01*
X-1517712Y-4030710D01*
X-1525280Y-4043336D01*
X-1534048Y-4055159D01*
X-1543934Y-4066066D01*
X-1554841Y-4075952D01*
X-1566664Y-4084720D01*
X-1579290Y-4092288D01*
X-1592597Y-4098582D01*
X-1606457Y-4103541D01*
X-1620736Y-4107118D01*
X-1635297Y-4109278D01*
X-1650000Y-4110000D01*
X-3300000Y-4110000D01*
X-3314703Y-4109278D01*
X-3329264Y-4107118D01*
X-3343543Y-4103541D01*
X-3357403Y-4098582D01*
X-3370710Y-4092288D01*
X-3383336Y-4084720D01*
X-3395159Y-4075952D01*
X-3406066Y-4066066D01*
X-3415952Y-4055159D01*
X-3424720Y-4043336D01*
X-3432288Y-4030710D01*
X-3438582Y-4017403D01*
X-3443541Y-4003543D01*
X-3447118Y-3989264D01*
X-3449278Y-3974703D01*
X-3450000Y-3960000D01*
X-3450000Y-3660000D01*
X-3449278Y-3645297D01*
X-3447118Y-3630736D01*
X-3443541Y-3616457D01*
X-3438582Y-3602597D01*
X-3432288Y-3589290D01*
X-3424720Y-3576664D01*
X-3415952Y-3564841D01*
X-3406066Y-3553934D01*
X-3395159Y-3544048D01*
X-3383336Y-3535280D01*
X-3370710Y-3527712D01*
X-3357403Y-3521418D01*
X-3343543Y-3516459D01*
X-3329264Y-3512882D01*
X-3314703Y-3510722D01*
X-3300000Y-3510000D01*
X-1650000Y-3510000D01*
X-1635297Y-3510722D01*
G37*
G04 #@! TD.AperFunction*
G04 #@! TA.AperFunction,SMDPad,CuDef*
G36*
X3314703Y-3510722D02*
G01*
X3329264Y-3512882D01*
X3343543Y-3516459D01*
X3357403Y-3521418D01*
X3370710Y-3527712D01*
X3383336Y-3535280D01*
X3395159Y-3544048D01*
X3406066Y-3553934D01*
X3415952Y-3564841D01*
X3424720Y-3576664D01*
X3432288Y-3589290D01*
X3438582Y-3602597D01*
X3443541Y-3616457D01*
X3447118Y-3630736D01*
X3449278Y-3645297D01*
X3450000Y-3660000D01*
X3450000Y-3960000D01*
X3449278Y-3974703D01*
X3447118Y-3989264D01*
X3443541Y-4003543D01*
X3438582Y-4017403D01*
X3432288Y-4030710D01*
X3424720Y-4043336D01*
X3415952Y-4055159D01*
X3406066Y-4066066D01*
X3395159Y-4075952D01*
X3383336Y-4084720D01*
X3370710Y-4092288D01*
X3357403Y-4098582D01*
X3343543Y-4103541D01*
X3329264Y-4107118D01*
X3314703Y-4109278D01*
X3300000Y-4110000D01*
X1650000Y-4110000D01*
X1635297Y-4109278D01*
X1620736Y-4107118D01*
X1606457Y-4103541D01*
X1592597Y-4098582D01*
X1579290Y-4092288D01*
X1566664Y-4084720D01*
X1554841Y-4075952D01*
X1543934Y-4066066D01*
X1534048Y-4055159D01*
X1525280Y-4043336D01*
X1517712Y-4030710D01*
X1511418Y-4017403D01*
X1506459Y-4003543D01*
X1502882Y-3989264D01*
X1500722Y-3974703D01*
X1500000Y-3960000D01*
X1500000Y-3660000D01*
X1500722Y-3645297D01*
X1502882Y-3630736D01*
X1506459Y-3616457D01*
X1511418Y-3602597D01*
X1517712Y-3589290D01*
X1525280Y-3576664D01*
X1534048Y-3564841D01*
X1543934Y-3553934D01*
X1554841Y-3544048D01*
X1566664Y-3535280D01*
X1579290Y-3527712D01*
X1592597Y-3521418D01*
X1606457Y-3516459D01*
X1620736Y-3512882D01*
X1635297Y-3510722D01*
X1650000Y-3510000D01*
X3300000Y-3510000D01*
X3314703Y-3510722D01*
G37*
G04 #@! TD.AperFunction*
G04 #@! TA.AperFunction,SMDPad,CuDef*
G36*
X3314703Y-2240722D02*
G01*
X3329264Y-2242882D01*
X3343543Y-2246459D01*
X3357403Y-2251418D01*
X3370710Y-2257712D01*
X3383336Y-2265280D01*
X3395159Y-2274048D01*
X3406066Y-2283934D01*
X3415952Y-2294841D01*
X3424720Y-2306664D01*
X3432288Y-2319290D01*
X3438582Y-2332597D01*
X3443541Y-2346457D01*
X3447118Y-2360736D01*
X3449278Y-2375297D01*
X3450000Y-2390000D01*
X3450000Y-2690000D01*
X3449278Y-2704703D01*
X3447118Y-2719264D01*
X3443541Y-2733543D01*
X3438582Y-2747403D01*
X3432288Y-2760710D01*
X3424720Y-2773336D01*
X3415952Y-2785159D01*
X3406066Y-2796066D01*
X3395159Y-2805952D01*
X3383336Y-2814720D01*
X3370710Y-2822288D01*
X3357403Y-2828582D01*
X3343543Y-2833541D01*
X3329264Y-2837118D01*
X3314703Y-2839278D01*
X3300000Y-2840000D01*
X1650000Y-2840000D01*
X1635297Y-2839278D01*
X1620736Y-2837118D01*
X1606457Y-2833541D01*
X1592597Y-2828582D01*
X1579290Y-2822288D01*
X1566664Y-2814720D01*
X1554841Y-2805952D01*
X1543934Y-2796066D01*
X1534048Y-2785159D01*
X1525280Y-2773336D01*
X1517712Y-2760710D01*
X1511418Y-2747403D01*
X1506459Y-2733543D01*
X1502882Y-2719264D01*
X1500722Y-2704703D01*
X1500000Y-2690000D01*
X1500000Y-2390000D01*
X1500722Y-2375297D01*
X1502882Y-2360736D01*
X1506459Y-2346457D01*
X1511418Y-2332597D01*
X1517712Y-2319290D01*
X1525280Y-2306664D01*
X1534048Y-2294841D01*
X1543934Y-2283934D01*
X1554841Y-2274048D01*
X1566664Y-2265280D01*
X1579290Y-2257712D01*
X1592597Y-2251418D01*
X1606457Y-2246459D01*
X1620736Y-2242882D01*
X1635297Y-2240722D01*
X1650000Y-2240000D01*
X3300000Y-2240000D01*
X3314703Y-2240722D01*
G37*
G04 #@! TD.AperFunction*
G04 #@! TA.AperFunction,SMDPad,CuDef*
G36*
X3314703Y-970722D02*
G01*
X3329264Y-972882D01*
X3343543Y-976459D01*
X3357403Y-981418D01*
X3370710Y-987712D01*
X3383336Y-995280D01*
X3395159Y-1004048D01*
X3406066Y-1013934D01*
X3415952Y-1024841D01*
X3424720Y-1036664D01*
X3432288Y-1049290D01*
X3438582Y-1062597D01*
X3443541Y-1076457D01*
X3447118Y-1090736D01*
X3449278Y-1105297D01*
X3450000Y-1120000D01*
X3450000Y-1420000D01*
X3449278Y-1434703D01*
X3447118Y-1449264D01*
X3443541Y-1463543D01*
X3438582Y-1477403D01*
X3432288Y-1490710D01*
X3424720Y-1503336D01*
X3415952Y-1515159D01*
X3406066Y-1526066D01*
X3395159Y-1535952D01*
X3383336Y-1544720D01*
X3370710Y-1552288D01*
X3357403Y-1558582D01*
X3343543Y-1563541D01*
X3329264Y-1567118D01*
X3314703Y-1569278D01*
X3300000Y-1570000D01*
X1650000Y-1570000D01*
X1635297Y-1569278D01*
X1620736Y-1567118D01*
X1606457Y-1563541D01*
X1592597Y-1558582D01*
X1579290Y-1552288D01*
X1566664Y-1544720D01*
X1554841Y-1535952D01*
X1543934Y-1526066D01*
X1534048Y-1515159D01*
X1525280Y-1503336D01*
X1517712Y-1490710D01*
X1511418Y-1477403D01*
X1506459Y-1463543D01*
X1502882Y-1449264D01*
X1500722Y-1434703D01*
X1500000Y-1420000D01*
X1500000Y-1120000D01*
X1500722Y-1105297D01*
X1502882Y-1090736D01*
X1506459Y-1076457D01*
X1511418Y-1062597D01*
X1517712Y-1049290D01*
X1525280Y-1036664D01*
X1534048Y-1024841D01*
X1543934Y-1013934D01*
X1554841Y-1004048D01*
X1566664Y-995280D01*
X1579290Y-987712D01*
X1592597Y-981418D01*
X1606457Y-976459D01*
X1620736Y-972882D01*
X1635297Y-970722D01*
X1650000Y-970000D01*
X3300000Y-970000D01*
X3314703Y-970722D01*
G37*
G04 #@! TD.AperFunction*
G04 #@! TA.AperFunction,SMDPad,CuDef*
G36*
X3314703Y299278D02*
G01*
X3329264Y297118D01*
X3343543Y293541D01*
X3357403Y288582D01*
X3370710Y282288D01*
X3383336Y274720D01*
X3395159Y265952D01*
X3406066Y256066D01*
X3415952Y245159D01*
X3424720Y233336D01*
X3432288Y220710D01*
X3438582Y207403D01*
X3443541Y193543D01*
X3447118Y179264D01*
X3449278Y164703D01*
X3450000Y150000D01*
X3450000Y-150000D01*
X3449278Y-164703D01*
X3447118Y-179264D01*
X3443541Y-193543D01*
X3438582Y-207403D01*
X3432288Y-220710D01*
X3424720Y-233336D01*
X3415952Y-245159D01*
X3406066Y-256066D01*
X3395159Y-265952D01*
X3383336Y-274720D01*
X3370710Y-282288D01*
X3357403Y-288582D01*
X3343543Y-293541D01*
X3329264Y-297118D01*
X3314703Y-299278D01*
X3300000Y-300000D01*
X1650000Y-300000D01*
X1635297Y-299278D01*
X1620736Y-297118D01*
X1606457Y-293541D01*
X1592597Y-288582D01*
X1579290Y-282288D01*
X1566664Y-274720D01*
X1554841Y-265952D01*
X1543934Y-256066D01*
X1534048Y-245159D01*
X1525280Y-233336D01*
X1517712Y-220710D01*
X1511418Y-207403D01*
X1506459Y-193543D01*
X1502882Y-179264D01*
X1500722Y-164703D01*
X1500000Y-150000D01*
X1500000Y150000D01*
X1500722Y164703D01*
X1502882Y179264D01*
X1506459Y193543D01*
X1511418Y207403D01*
X1517712Y220710D01*
X1525280Y233336D01*
X1534048Y245159D01*
X1543934Y256066D01*
X1554841Y265952D01*
X1566664Y274720D01*
X1579290Y282288D01*
X1592597Y288582D01*
X1606457Y293541D01*
X1620736Y297118D01*
X1635297Y299278D01*
X1650000Y300000D01*
X3300000Y300000D01*
X3314703Y299278D01*
G37*
G04 #@! TD.AperFunction*
G04 #@! TA.AperFunction,SMDPad,CuDef*
G36*
X3314703Y1569278D02*
G01*
X3329264Y1567118D01*
X3343543Y1563541D01*
X3357403Y1558582D01*
X3370710Y1552288D01*
X3383336Y1544720D01*
X3395159Y1535952D01*
X3406066Y1526066D01*
X3415952Y1515159D01*
X3424720Y1503336D01*
X3432288Y1490710D01*
X3438582Y1477403D01*
X3443541Y1463543D01*
X3447118Y1449264D01*
X3449278Y1434703D01*
X3450000Y1420000D01*
X3450000Y1120000D01*
X3449278Y1105297D01*
X3447118Y1090736D01*
X3443541Y1076457D01*
X3438582Y1062597D01*
X3432288Y1049290D01*
X3424720Y1036664D01*
X3415952Y1024841D01*
X3406066Y1013934D01*
X3395159Y1004048D01*
X3383336Y995280D01*
X3370710Y987712D01*
X3357403Y981418D01*
X3343543Y976459D01*
X3329264Y972882D01*
X3314703Y970722D01*
X3300000Y970000D01*
X1650000Y970000D01*
X1635297Y970722D01*
X1620736Y972882D01*
X1606457Y976459D01*
X1592597Y981418D01*
X1579290Y987712D01*
X1566664Y995280D01*
X1554841Y1004048D01*
X1543934Y1013934D01*
X1534048Y1024841D01*
X1525280Y1036664D01*
X1517712Y1049290D01*
X1511418Y1062597D01*
X1506459Y1076457D01*
X1502882Y1090736D01*
X1500722Y1105297D01*
X1500000Y1120000D01*
X1500000Y1420000D01*
X1500722Y1434703D01*
X1502882Y1449264D01*
X1506459Y1463543D01*
X1511418Y1477403D01*
X1517712Y1490710D01*
X1525280Y1503336D01*
X1534048Y1515159D01*
X1543934Y1526066D01*
X1554841Y1535952D01*
X1566664Y1544720D01*
X1579290Y1552288D01*
X1592597Y1558582D01*
X1606457Y1563541D01*
X1620736Y1567118D01*
X1635297Y1569278D01*
X1650000Y1570000D01*
X3300000Y1570000D01*
X3314703Y1569278D01*
G37*
G04 #@! TD.AperFunction*
G04 #@! TA.AperFunction,SMDPad,CuDef*
G36*
X3314703Y2839278D02*
G01*
X3329264Y2837118D01*
X3343543Y2833541D01*
X3357403Y2828582D01*
X3370710Y2822288D01*
X3383336Y2814720D01*
X3395159Y2805952D01*
X3406066Y2796066D01*
X3415952Y2785159D01*
X3424720Y2773336D01*
X3432288Y2760710D01*
X3438582Y2747403D01*
X3443541Y2733543D01*
X3447118Y2719264D01*
X3449278Y2704703D01*
X3450000Y2690000D01*
X3450000Y2390000D01*
X3449278Y2375297D01*
X3447118Y2360736D01*
X3443541Y2346457D01*
X3438582Y2332597D01*
X3432288Y2319290D01*
X3424720Y2306664D01*
X3415952Y2294841D01*
X3406066Y2283934D01*
X3395159Y2274048D01*
X3383336Y2265280D01*
X3370710Y2257712D01*
X3357403Y2251418D01*
X3343543Y2246459D01*
X3329264Y2242882D01*
X3314703Y2240722D01*
X3300000Y2240000D01*
X1650000Y2240000D01*
X1635297Y2240722D01*
X1620736Y2242882D01*
X1606457Y2246459D01*
X1592597Y2251418D01*
X1579290Y2257712D01*
X1566664Y2265280D01*
X1554841Y2274048D01*
X1543934Y2283934D01*
X1534048Y2294841D01*
X1525280Y2306664D01*
X1517712Y2319290D01*
X1511418Y2332597D01*
X1506459Y2346457D01*
X1502882Y2360736D01*
X1500722Y2375297D01*
X1500000Y2390000D01*
X1500000Y2690000D01*
X1500722Y2704703D01*
X1502882Y2719264D01*
X1506459Y2733543D01*
X1511418Y2747403D01*
X1517712Y2760710D01*
X1525280Y2773336D01*
X1534048Y2785159D01*
X1543934Y2796066D01*
X1554841Y2805952D01*
X1566664Y2814720D01*
X1579290Y2822288D01*
X1592597Y2828582D01*
X1606457Y2833541D01*
X1620736Y2837118D01*
X1635297Y2839278D01*
X1650000Y2840000D01*
X3300000Y2840000D01*
X3314703Y2839278D01*
G37*
G04 #@! TD.AperFunction*
G04 #@! TA.AperFunction,SMDPad,CuDef*
G36*
X3314703Y4109278D02*
G01*
X3329264Y4107118D01*
X3343543Y4103541D01*
X3357403Y4098582D01*
X3370710Y4092288D01*
X3383336Y4084720D01*
X3395159Y4075952D01*
X3406066Y4066066D01*
X3415952Y4055159D01*
X3424720Y4043336D01*
X3432288Y4030710D01*
X3438582Y4017403D01*
X3443541Y4003543D01*
X3447118Y3989264D01*
X3449278Y3974703D01*
X3450000Y3960000D01*
X3450000Y3660000D01*
X3449278Y3645297D01*
X3447118Y3630736D01*
X3443541Y3616457D01*
X3438582Y3602597D01*
X3432288Y3589290D01*
X3424720Y3576664D01*
X3415952Y3564841D01*
X3406066Y3553934D01*
X3395159Y3544048D01*
X3383336Y3535280D01*
X3370710Y3527712D01*
X3357403Y3521418D01*
X3343543Y3516459D01*
X3329264Y3512882D01*
X3314703Y3510722D01*
X3300000Y3510000D01*
X1650000Y3510000D01*
X1635297Y3510722D01*
X1620736Y3512882D01*
X1606457Y3516459D01*
X1592597Y3521418D01*
X1579290Y3527712D01*
X1566664Y3535280D01*
X1554841Y3544048D01*
X1543934Y3553934D01*
X1534048Y3564841D01*
X1525280Y3576664D01*
X1517712Y3589290D01*
X1511418Y3602597D01*
X1506459Y3616457D01*
X1502882Y3630736D01*
X1500722Y3645297D01*
X1500000Y3660000D01*
X1500000Y3960000D01*
X1500722Y3974703D01*
X1502882Y3989264D01*
X1506459Y4003543D01*
X1511418Y4017403D01*
X1517712Y4030710D01*
X1525280Y4043336D01*
X1534048Y4055159D01*
X1543934Y4066066D01*
X1554841Y4075952D01*
X1566664Y4084720D01*
X1579290Y4092288D01*
X1592597Y4098582D01*
X1606457Y4103541D01*
X1620736Y4107118D01*
X1635297Y4109278D01*
X1650000Y4110000D01*
X3300000Y4110000D01*
X3314703Y4109278D01*
G37*
G04 #@! TD.AperFunction*
D13*
X8890000Y6350000D03*
M02*
